ISO-10303-21;
HEADER;
FILE_DESCRIPTION(('STEP AP242'),'1');
FILE_NAME('2041443-2.stp','2022-12-06T15:48:16',('TraceParts'),('TraceParts S.A.'),'Spatial InterOp 3D',' ',' ');
FILE_SCHEMA(('AP242_MANAGED_MODEL_BASED_3D_ENGINEERING_MIM_LF  {1 0 10303 442 1 1 4}'));
ENDSEC;
DATA;
#1=PRODUCT_DEFINITION_CONTEXT('',#9,'design');
#2=APPLICATION_PROTOCOL_DEFINITION('INTERNATIONAL STANDARD','ap242_managed_model_based_3d_engineering',2014,#9);
#3=PRODUCT_CATEGORY_RELATIONSHIP('NONE','NONE',#10,#11);
#4=SHAPE_DEFINITION_REPRESENTATION(#12,#13);
#5= (GEOMETRIC_REPRESENTATION_CONTEXT(3)GLOBAL_UNCERTAINTY_ASSIGNED_CONTEXT((#16))GLOBAL_UNIT_ASSIGNED_CONTEXT((#18,#19,#20))REPRESENTATION_CONTEXT('NONE','WORKSPACE'));
#9=APPLICATION_CONTEXT('managed model based 3d engineering');
#10=PRODUCT_CATEGORY('part','NONE');
#11=PRODUCT_RELATED_PRODUCT_CATEGORY('detail',' ',(#22));
#12=PRODUCT_DEFINITION_SHAPE('NONE','NONE',#23);
#13=ADVANCED_BREP_SHAPE_REPRESENTATION('2041443-2',(#24,#25),#5);
#16=UNCERTAINTY_MEASURE_WITH_UNIT(LENGTH_MEASURE(1.0E-06),#18,'','');
#18= (CONVERSION_BASED_UNIT('MILLIMETRE',#28)LENGTH_UNIT()NAMED_UNIT(#31));
#19= (NAMED_UNIT(#33)PLANE_ANGLE_UNIT()SI_UNIT($,.RADIAN.));
#20= (NAMED_UNIT(#33)SOLID_ANGLE_UNIT()SI_UNIT($,.STERADIAN.));
#22=PRODUCT('2041443-2','2041443-2','PART-2041443-2-DESC',(#39));
#23=PRODUCT_DEFINITION('','NONE',#40,#1);
#24=MANIFOLD_SOLID_BREP('2041443-2',#41);
#25=AXIS2_PLACEMENT_3D('',#42,#43,#44);
#28=LENGTH_MEASURE_WITH_UNIT(LENGTH_MEASURE(1.0),#45);
#31=DIMENSIONAL_EXPONENTS(1.0,0.0,0.0,0.0,0.0,0.0,0.0);
#33=DIMENSIONAL_EXPONENTS(0.0,0.0,0.0,0.0,0.0,0.0,0.0);
#39=PRODUCT_CONTEXT('',#9,'mechanical');
#40=PRODUCT_DEFINITION_FORMATION_WITH_SPECIFIED_SOURCE(' ','NONE',#22,.NOT_KNOWN.);
#41=CLOSED_SHELL('',(#46,#47,#48,#49,#50,#51,#52,#53,#54,#55,#56,#57,#58,#59,#60,#61,#62,#63,#64,#65,#66,#67,#68,#69,#70,#71,#72,#73,#74,#75,#76,#77,#78,#79,#80,#81,#82,#83,#84,#85,#86,#87,#88,#89,#90,#91,#92,#93,#94,#95,#96,#97,#98,#99,#100,#101,#102,#103,#104,#105,#106,#107,#108,#109,#110,#111,#112,#113,#114,#115,#116,#117,#118,#119,#120,#121,#122,#123,#124,#125,#126,#127,#128,#129,#130,#131));
#42=CARTESIAN_POINT('',(0.0,0.0,0.0));
#43=DIRECTION('',(0.0,0.0,1.0));
#44=DIRECTION('',(1.0,0.0,0.0));
#45= (NAMED_UNIT(#31)LENGTH_UNIT()SI_UNIT(.MILLI.,.METRE.));
#46=ADVANCED_FACE('',(#133),#134,.T.);
#47=ADVANCED_FACE('',(#135,#136,#137,#138,#139),#140,.T.);
#48=ADVANCED_FACE('',(#141),#142,.F.);
#49=ADVANCED_FACE('',(#143),#144,.F.);
#50=ADVANCED_FACE('',(#145),#146,.F.);
#51=ADVANCED_FACE('',(#147),#148,.F.);
#52=ADVANCED_FACE('',(#149,#150),#151,.T.);
#53=ADVANCED_FACE('',(#152,#153),#154,.T.);
#54=ADVANCED_FACE('',(#155,#156),#157,.T.);
#55=ADVANCED_FACE('',(#158,#159),#160,.T.);
#56=ADVANCED_FACE('',(#161),#162,.F.);
#57=ADVANCED_FACE('',(#163),#164,.F.);
#58=ADVANCED_FACE('',(#165),#166,.F.);
#59=ADVANCED_FACE('',(#167),#168,.F.);
#60=ADVANCED_FACE('',(#169),#170,.T.);
#61=ADVANCED_FACE('',(#171),#172,.F.);
#62=ADVANCED_FACE('',(#173),#174,.F.);
#63=ADVANCED_FACE('',(#175),#176,.F.);
#64=ADVANCED_FACE('',(#177),#178,.T.);
#65=ADVANCED_FACE('',(#179),#180,.F.);
#66=ADVANCED_FACE('',(#181),#182,.T.);
#67=ADVANCED_FACE('',(#183),#184,.F.);
#68=ADVANCED_FACE('',(#185),#186,.T.);
#69=ADVANCED_FACE('',(#187),#188,.F.);
#70=ADVANCED_FACE('',(#189),#190,.F.);
#71=ADVANCED_FACE('',(#191),#192,.F.);
#72=ADVANCED_FACE('',(#193),#194,.T.);
#73=ADVANCED_FACE('',(#195),#196,.T.);
#74=ADVANCED_FACE('',(#197),#198,.T.);
#75=ADVANCED_FACE('',(#199),#200,.T.);
#76=ADVANCED_FACE('',(#201),#202,.T.);
#77=ADVANCED_FACE('',(#203),#204,.T.);
#78=ADVANCED_FACE('',(#205),#206,.T.);
#79=ADVANCED_FACE('',(#207),#208,.T.);
#80=ADVANCED_FACE('',(#209),#210,.T.);
#81=ADVANCED_FACE('',(#211),#212,.T.);
#82=ADVANCED_FACE('',(#213),#214,.T.);
#83=ADVANCED_FACE('',(#215),#216,.T.);
#84=ADVANCED_FACE('',(#217),#218,.T.);
#85=ADVANCED_FACE('',(#219),#220,.T.);
#86=ADVANCED_FACE('',(#221),#222,.T.);
#87=ADVANCED_FACE('',(#223),#224,.T.);
#88=ADVANCED_FACE('',(#225),#226,.T.);
#89=ADVANCED_FACE('',(#227),#228,.T.);
#90=ADVANCED_FACE('',(#229),#230,.T.);
#91=ADVANCED_FACE('',(#231),#232,.T.);
#92=ADVANCED_FACE('',(#233),#234,.T.);
#93=ADVANCED_FACE('',(#235,#236,#237,#238,#239,#240),#241,.F.);
#94=ADVANCED_FACE('',(#242),#243,.T.);
#95=ADVANCED_FACE('',(#244),#245,.T.);
#96=ADVANCED_FACE('',(#246),#247,.T.);
#97=ADVANCED_FACE('',(#248),#249,.T.);
#98=ADVANCED_FACE('',(#250),#251,.T.);
#99=ADVANCED_FACE('',(#252),#253,.T.);
#100=ADVANCED_FACE('',(#254),#255,.T.);
#101=ADVANCED_FACE('',(#256),#257,.T.);
#102=ADVANCED_FACE('',(#258),#259,.T.);
#103=ADVANCED_FACE('',(#260),#261,.T.);
#104=ADVANCED_FACE('',(#262),#263,.T.);
#105=ADVANCED_FACE('',(#264),#265,.T.);
#106=ADVANCED_FACE('',(#266),#267,.T.);
#107=ADVANCED_FACE('',(#268),#269,.F.);
#108=ADVANCED_FACE('',(#270),#271,.T.);
#109=ADVANCED_FACE('',(#272),#273,.T.);
#110=ADVANCED_FACE('',(#274),#275,.T.);
#111=ADVANCED_FACE('',(#276),#277,.T.);
#112=ADVANCED_FACE('',(#278),#279,.T.);
#113=ADVANCED_FACE('',(#280),#281,.T.);
#114=ADVANCED_FACE('',(#282),#283,.T.);
#115=ADVANCED_FACE('',(#284),#285,.T.);
#116=ADVANCED_FACE('',(#286),#287,.T.);
#117=ADVANCED_FACE('',(#288),#289,.T.);
#118=ADVANCED_FACE('',(#290),#291,.T.);
#119=ADVANCED_FACE('',(#292),#293,.T.);
#120=ADVANCED_FACE('',(#294),#295,.T.);
#121=ADVANCED_FACE('',(#296),#297,.T.);
#122=ADVANCED_FACE('',(#298),#299,.T.);
#123=ADVANCED_FACE('',(#300),#301,.T.);
#124=ADVANCED_FACE('',(#302),#303,.T.);
#125=ADVANCED_FACE('',(#304),#305,.T.);
#126=ADVANCED_FACE('',(#306),#307,.T.);
#127=ADVANCED_FACE('',(#308),#309,.T.);
#128=ADVANCED_FACE('',(#310),#311,.T.);
#129=ADVANCED_FACE('',(#312),#313,.T.);
#130=ADVANCED_FACE('',(#314),#315,.T.);
#131=ADVANCED_FACE('',(#316),#317,.T.);
#133=FACE_OUTER_BOUND('',#318,.T.);
#134=CYLINDRICAL_SURFACE('',#319,0.5);
#135=FACE_OUTER_BOUND('',#320,.T.);
#136=FACE_BOUND('',#321,.T.);
#137=FACE_BOUND('',#322,.T.);
#138=FACE_BOUND('',#323,.T.);
#139=FACE_BOUND('',#324,.T.);
#140=PLANE('',#325);
#141=FACE_OUTER_BOUND('',#326,.T.);
#142=PLANE('',#327);
#143=FACE_OUTER_BOUND('',#328,.T.);
#144=PLANE('',#329);
#145=FACE_OUTER_BOUND('',#330,.T.);
#146=PLANE('',#331);
#147=FACE_OUTER_BOUND('',#332,.T.);
#148=PLANE('',#333);
#149=FACE_OUTER_BOUND('',#334,.T.);
#150=FACE_BOUND('',#335,.T.);
#151=PLANE('',#336);
#152=FACE_OUTER_BOUND('',#337,.T.);
#153=FACE_BOUND('',#338,.T.);
#154=PLANE('',#339);
#155=FACE_OUTER_BOUND('',#340,.T.);
#156=FACE_BOUND('',#341,.T.);
#157=PLANE('',#342);
#158=FACE_OUTER_BOUND('',#343,.T.);
#159=FACE_BOUND('',#344,.T.);
#160=PLANE('',#345);
#161=FACE_OUTER_BOUND('',#346,.T.);
#162=PLANE('',#347);
#163=FACE_OUTER_BOUND('',#348,.T.);
#164=PLANE('',#349);
#165=FACE_OUTER_BOUND('',#350,.T.);
#166=PLANE('',#351);
#167=FACE_OUTER_BOUND('',#352,.T.);
#168=PLANE('',#353);
#169=FACE_OUTER_BOUND('',#354,.T.);
#170=PLANE('',#355);
#171=FACE_OUTER_BOUND('',#356,.T.);
#172=PLANE('',#357);
#173=FACE_OUTER_BOUND('',#358,.T.);
#174=PLANE('',#359);
#175=FACE_OUTER_BOUND('',#360,.T.);
#176=PLANE('',#361);
#177=FACE_OUTER_BOUND('',#362,.T.);
#178=PLANE('',#363);
#179=FACE_OUTER_BOUND('',#364,.T.);
#180=PLANE('',#365);
#181=FACE_OUTER_BOUND('',#366,.T.);
#182=PLANE('',#367);
#183=FACE_OUTER_BOUND('',#368,.T.);
#184=PLANE('',#369);
#185=FACE_OUTER_BOUND('',#370,.T.);
#186=PLANE('',#371);
#187=FACE_OUTER_BOUND('',#372,.T.);
#188=PLANE('',#373);
#189=FACE_OUTER_BOUND('',#374,.T.);
#190=PLANE('',#375);
#191=FACE_OUTER_BOUND('',#376,.T.);
#192=PLANE('',#377);
#193=FACE_OUTER_BOUND('',#378,.T.);
#194=PLANE('',#379);
#195=FACE_OUTER_BOUND('',#380,.T.);
#196=PLANE('',#381);
#197=FACE_OUTER_BOUND('',#382,.T.);
#198=PLANE('',#383);
#199=FACE_OUTER_BOUND('',#384,.T.);
#200=PLANE('',#385);
#201=FACE_OUTER_BOUND('',#386,.T.);
#202=PLANE('',#387);
#203=FACE_OUTER_BOUND('',#388,.T.);
#204=PLANE('',#389);
#205=FACE_OUTER_BOUND('',#390,.T.);
#206=PLANE('',#391);
#207=FACE_OUTER_BOUND('',#392,.T.);
#208=PLANE('',#393);
#209=FACE_OUTER_BOUND('',#394,.T.);
#210=PLANE('',#395);
#211=FACE_OUTER_BOUND('',#396,.T.);
#212=PLANE('',#397);
#213=FACE_OUTER_BOUND('',#398,.T.);
#214=PLANE('',#399);
#215=FACE_OUTER_BOUND('',#400,.T.);
#216=PLANE('',#401);
#217=FACE_OUTER_BOUND('',#402,.T.);
#218=PLANE('',#403);
#219=FACE_OUTER_BOUND('',#404,.T.);
#220=PLANE('',#405);
#221=FACE_OUTER_BOUND('',#406,.T.);
#222=PLANE('',#407);
#223=FACE_OUTER_BOUND('',#408,.T.);
#224=PLANE('',#409);
#225=FACE_OUTER_BOUND('',#410,.T.);
#226=PLANE('',#411);
#227=FACE_OUTER_BOUND('',#412,.T.);
#228=PLANE('',#413);
#229=FACE_OUTER_BOUND('',#414,.T.);
#230=PLANE('',#415);
#231=FACE_OUTER_BOUND('',#416,.T.);
#232=PLANE('',#417);
#233=FACE_OUTER_BOUND('',#418,.T.);
#234=CYLINDRICAL_SURFACE('',#419,0.5);
#235=FACE_OUTER_BOUND('',#420,.T.);
#236=FACE_BOUND('',#421,.T.);
#237=FACE_BOUND('',#422,.T.);
#238=FACE_BOUND('',#423,.T.);
#239=FACE_BOUND('',#424,.T.);
#240=FACE_BOUND('',#425,.T.);
#241=PLANE('',#426);
#242=FACE_OUTER_BOUND('',#427,.T.);
#243=CYLINDRICAL_SURFACE('',#428,0.25);
#244=FACE_OUTER_BOUND('',#429,.T.);
#245=SPHERICAL_SURFACE('',#430,0.25);
#246=FACE_OUTER_BOUND('',#431,.T.);
#247=SPHERICAL_SURFACE('',#432,0.25);
#248=FACE_OUTER_BOUND('',#433,.T.);
#249=CYLINDRICAL_SURFACE('',#434,0.25);
#250=FACE_OUTER_BOUND('',#435,.T.);
#251=PLANE('',#436);
#252=FACE_OUTER_BOUND('',#437,.T.);
#253=CYLINDRICAL_SURFACE('',#438,0.5);
#254=FACE_OUTER_BOUND('',#439,.T.);
#255=PLANE('',#440);
#256=FACE_OUTER_BOUND('',#441,.T.);
#257=PLANE('',#442);
#258=FACE_OUTER_BOUND('',#443,.T.);
#259=CYLINDRICAL_SURFACE('',#444,0.5);
#260=FACE_OUTER_BOUND('',#445,.T.);
#261=CYLINDRICAL_SURFACE('',#446,0.5);
#262=FACE_OUTER_BOUND('',#447,.T.);
#263=PLANE('',#448);
#264=FACE_OUTER_BOUND('',#449,.T.);
#265=CYLINDRICAL_SURFACE('',#450,0.5);
#266=FACE_OUTER_BOUND('',#451,.T.);
#267=PLANE('',#452);
#268=FACE_OUTER_BOUND('',#453,.T.);
#269=PLANE('',#454);
#270=FACE_OUTER_BOUND('',#455,.T.);
#271=PLANE('',#456);
#272=FACE_OUTER_BOUND('',#457,.T.);
#273=PLANE('',#458);
#274=FACE_OUTER_BOUND('',#459,.T.);
#275=PLANE('',#460);
#276=FACE_OUTER_BOUND('',#461,.T.);
#277=PLANE('',#462);
#278=FACE_OUTER_BOUND('',#463,.T.);
#279=PLANE('',#464);
#280=FACE_OUTER_BOUND('',#465,.T.);
#281=PLANE('',#466);
#282=FACE_OUTER_BOUND('',#467,.T.);
#283=PLANE('',#468);
#284=FACE_OUTER_BOUND('',#469,.T.);
#285=PLANE('',#470);
#286=FACE_OUTER_BOUND('',#471,.T.);
#287=PLANE('',#472);
#288=FACE_OUTER_BOUND('',#473,.T.);
#289=PLANE('',#474);
#290=FACE_OUTER_BOUND('',#475,.T.);
#291=PLANE('',#476);
#292=FACE_OUTER_BOUND('',#477,.T.);
#293=PLANE('',#478);
#294=FACE_OUTER_BOUND('',#479,.T.);
#295=PLANE('',#480);
#296=FACE_OUTER_BOUND('',#481,.T.);
#297=PLANE('',#482);
#298=FACE_OUTER_BOUND('',#483,.T.);
#299=PLANE('',#484);
#300=FACE_OUTER_BOUND('',#485,.T.);
#301=PLANE('',#486);
#302=FACE_OUTER_BOUND('',#487,.T.);
#303=PLANE('',#488);
#304=FACE_OUTER_BOUND('',#489,.T.);
#305=PLANE('',#490);
#306=FACE_OUTER_BOUND('',#491,.T.);
#307=PLANE('',#492);
#308=FACE_OUTER_BOUND('',#493,.T.);
#309=PLANE('',#494);
#310=FACE_OUTER_BOUND('',#495,.T.);
#311=PLANE('',#496);
#312=FACE_OUTER_BOUND('',#497,.T.);
#313=PLANE('',#498);
#314=FACE_OUTER_BOUND('',#499,.T.);
#315=PLANE('',#500);
#316=FACE_OUTER_BOUND('',#501,.T.);
#317=PLANE('',#502);
#318=EDGE_LOOP('',(#503,#504,#505,#506));
#319=AXIS2_PLACEMENT_3D('',#507,#508,#509);
#320=EDGE_LOOP('',(#510,#511,#512,#513,#514,#515,#516,#517,#518,#519,#520,#521,#522));
#321=EDGE_LOOP('',(#523,#524,#525,#526));
#322=EDGE_LOOP('',(#527,#528,#529,#530,#531,#532));
#323=EDGE_LOOP('',(#533,#534,#535,#536,#537,#538));
#324=EDGE_LOOP('',(#539,#540,#541,#542));
#325=AXIS2_PLACEMENT_3D('',#543,#544,#545);
#326=EDGE_LOOP('',(#546,#547,#548,#549));
#327=AXIS2_PLACEMENT_3D('',#550,#551,#552);
#328=EDGE_LOOP('',(#553,#554,#555,#556));
#329=AXIS2_PLACEMENT_3D('',#557,#558,#559);
#330=EDGE_LOOP('',(#560,#561,#562,#563));
#331=AXIS2_PLACEMENT_3D('',#564,#565,#566);
#332=EDGE_LOOP('',(#567,#568,#569,#570));
#333=AXIS2_PLACEMENT_3D('',#571,#572,#573);
#334=EDGE_LOOP('',(#574,#575,#576,#577));
#335=EDGE_LOOP('',(#578,#579,#580,#581));
#336=AXIS2_PLACEMENT_3D('',#582,#583,#584);
#337=EDGE_LOOP('',(#585,#586,#587,#588));
#338=EDGE_LOOP('',(#589,#590,#591,#592));
#339=AXIS2_PLACEMENT_3D('',#593,#594,#595);
#340=EDGE_LOOP('',(#596,#597,#598,#599,#600,#601));
#341=EDGE_LOOP('',(#602,#603,#604,#605));
#342=AXIS2_PLACEMENT_3D('',#606,#607,#608);
#343=EDGE_LOOP('',(#609,#610,#611,#612,#613,#614));
#344=EDGE_LOOP('',(#615,#616,#617,#618));
#345=AXIS2_PLACEMENT_3D('',#619,#620,#621);
#346=EDGE_LOOP('',(#622,#623,#624,#625));
#347=AXIS2_PLACEMENT_3D('',#626,#627,#628);
#348=EDGE_LOOP('',(#629,#630,#631,#632));
#349=AXIS2_PLACEMENT_3D('',#633,#634,#635);
#350=EDGE_LOOP('',(#636,#637,#638,#639));
#351=AXIS2_PLACEMENT_3D('',#640,#641,#642);
#352=EDGE_LOOP('',(#643,#644,#645,#646));
#353=AXIS2_PLACEMENT_3D('',#647,#648,#649);
#354=EDGE_LOOP('',(#650,#651,#652,#653));
#355=AXIS2_PLACEMENT_3D('',#654,#655,#656);
#356=EDGE_LOOP('',(#657,#658,#659,#660));
#357=AXIS2_PLACEMENT_3D('',#661,#662,#663);
#358=EDGE_LOOP('',(#664,#665,#666,#667));
#359=AXIS2_PLACEMENT_3D('',#668,#669,#670);
#360=EDGE_LOOP('',(#671,#672,#673,#674));
#361=AXIS2_PLACEMENT_3D('',#675,#676,#677);
#362=EDGE_LOOP('',(#678,#679,#680,#681));
#363=AXIS2_PLACEMENT_3D('',#682,#683,#684);
#364=EDGE_LOOP('',(#685,#686,#687,#688));
#365=AXIS2_PLACEMENT_3D('',#689,#690,#691);
#366=EDGE_LOOP('',(#692,#693,#694,#695));
#367=AXIS2_PLACEMENT_3D('',#696,#697,#698);
#368=EDGE_LOOP('',(#699,#700,#701,#702));
#369=AXIS2_PLACEMENT_3D('',#703,#704,#705);
#370=EDGE_LOOP('',(#706,#707,#708,#709));
#371=AXIS2_PLACEMENT_3D('',#710,#711,#712);
#372=EDGE_LOOP('',(#713,#714,#715,#716));
#373=AXIS2_PLACEMENT_3D('',#717,#718,#719);
#374=EDGE_LOOP('',(#720,#721,#722,#723));
#375=AXIS2_PLACEMENT_3D('',#724,#725,#726);
#376=EDGE_LOOP('',(#727,#728,#729,#730));
#377=AXIS2_PLACEMENT_3D('',#731,#732,#733);
#378=EDGE_LOOP('',(#734,#735,#736,#737));
#379=AXIS2_PLACEMENT_3D('',#738,#739,#740);
#380=EDGE_LOOP('',(#741,#742,#743,#744));
#381=AXIS2_PLACEMENT_3D('',#745,#746,#747);
#382=EDGE_LOOP('',(#748,#749,#750,#751));
#383=AXIS2_PLACEMENT_3D('',#752,#753,#754);
#384=EDGE_LOOP('',(#755,#756,#757,#758));
#385=AXIS2_PLACEMENT_3D('',#759,#760,#761);
#386=EDGE_LOOP('',(#762,#763,#764,#765));
#387=AXIS2_PLACEMENT_3D('',#766,#767,#768);
#388=EDGE_LOOP('',(#769,#770,#771,#772));
#389=AXIS2_PLACEMENT_3D('',#773,#774,#775);
#390=EDGE_LOOP('',(#776,#777,#778,#779));
#391=AXIS2_PLACEMENT_3D('',#780,#781,#782);
#392=EDGE_LOOP('',(#783,#784,#785,#786));
#393=AXIS2_PLACEMENT_3D('',#787,#788,#789);
#394=EDGE_LOOP('',(#790,#791,#792,#793));
#395=AXIS2_PLACEMENT_3D('',#794,#795,#796);
#396=EDGE_LOOP('',(#797,#798,#799,#800));
#397=AXIS2_PLACEMENT_3D('',#801,#802,#803);
#398=EDGE_LOOP('',(#804,#805,#806,#807));
#399=AXIS2_PLACEMENT_3D('',#808,#809,#810);
#400=EDGE_LOOP('',(#811,#812,#813,#814));
#401=AXIS2_PLACEMENT_3D('',#815,#816,#817);
#402=EDGE_LOOP('',(#818,#819,#820,#821));
#403=AXIS2_PLACEMENT_3D('',#822,#823,#824);
#404=EDGE_LOOP('',(#825,#826,#827,#828));
#405=AXIS2_PLACEMENT_3D('',#829,#830,#831);
#406=EDGE_LOOP('',(#832,#833,#834,#835));
#407=AXIS2_PLACEMENT_3D('',#836,#837,#838);
#408=EDGE_LOOP('',(#839,#840,#841,#842));
#409=AXIS2_PLACEMENT_3D('',#843,#844,#845);
#410=EDGE_LOOP('',(#846,#847,#848,#849));
#411=AXIS2_PLACEMENT_3D('',#850,#851,#852);
#412=EDGE_LOOP('',(#853,#854,#855,#856));
#413=AXIS2_PLACEMENT_3D('',#857,#858,#859);
#414=EDGE_LOOP('',(#860,#861,#862,#863));
#415=AXIS2_PLACEMENT_3D('',#864,#865,#866);
#416=EDGE_LOOP('',(#867,#868,#869,#870));
#417=AXIS2_PLACEMENT_3D('',#871,#872,#873);
#418=EDGE_LOOP('',(#874,#875,#876,#877));
#419=AXIS2_PLACEMENT_3D('',#878,#879,#880);
#420=EDGE_LOOP('',(#881,#882,#883,#884,#885,#886,#887,#888,#889,#890,#891));
#421=EDGE_LOOP('',(#892,#893));
#422=EDGE_LOOP('',(#894,#895,#896,#897));
#423=EDGE_LOOP('',(#898,#899,#900,#901));
#424=EDGE_LOOP('',(#902,#903,#904,#905));
#425=EDGE_LOOP('',(#906,#907,#908,#909));
#426=AXIS2_PLACEMENT_3D('',#910,#911,#912);
#427=EDGE_LOOP('',(#913,#914,#915,#916));
#428=AXIS2_PLACEMENT_3D('',#917,#918,#919);
#429=EDGE_LOOP('',(#920,#921,#922));
#430=AXIS2_PLACEMENT_3D('',#923,#924,#925);
#431=EDGE_LOOP('',(#926,#927,#928));
#432=AXIS2_PLACEMENT_3D('',#929,#930,#931);
#433=EDGE_LOOP('',(#932,#933,#934,#935));
#434=AXIS2_PLACEMENT_3D('',#936,#937,#938);
#435=EDGE_LOOP('',(#939,#940,#941,#942));
#436=AXIS2_PLACEMENT_3D('',#943,#944,#945);
#437=EDGE_LOOP('',(#946,#947,#948,#949));
#438=AXIS2_PLACEMENT_3D('',#950,#951,#952);
#439=EDGE_LOOP('',(#953,#954,#955,#956));
#440=AXIS2_PLACEMENT_3D('',#957,#958,#959);
#441=EDGE_LOOP('',(#960,#961,#962,#963));
#442=AXIS2_PLACEMENT_3D('',#964,#965,#966);
#443=EDGE_LOOP('',(#967,#968,#969,#970));
#444=AXIS2_PLACEMENT_3D('',#971,#972,#973);
#445=EDGE_LOOP('',(#974,#975,#976,#977));
#446=AXIS2_PLACEMENT_3D('',#978,#979,#980);
#447=EDGE_LOOP('',(#981,#982,#983,#984,#985,#986,#987,#988));
#448=AXIS2_PLACEMENT_3D('',#989,#990,#991);
#449=EDGE_LOOP('',(#992,#993,#994,#995));
#450=AXIS2_PLACEMENT_3D('',#996,#997,#998);
#451=EDGE_LOOP('',(#999,#1000,#1001,#1002));
#452=AXIS2_PLACEMENT_3D('',#1003,#1004,#1005);
#453=EDGE_LOOP('',(#1006,#1007,#1008,#1009));
#454=AXIS2_PLACEMENT_3D('',#1010,#1011,#1012);
#455=EDGE_LOOP('',(#1013,#1014,#1015,#1016));
#456=AXIS2_PLACEMENT_3D('',#1017,#1018,#1019);
#457=EDGE_LOOP('',(#1020,#1021,#1022,#1023));
#458=AXIS2_PLACEMENT_3D('',#1024,#1025,#1026);
#459=EDGE_LOOP('',(#1027,#1028,#1029,#1030));
#460=AXIS2_PLACEMENT_3D('',#1031,#1032,#1033);
#461=EDGE_LOOP('',(#1034,#1035,#1036,#1037));
#462=AXIS2_PLACEMENT_3D('',#1038,#1039,#1040);
#463=EDGE_LOOP('',(#1041,#1042,#1043,#1044));
#464=AXIS2_PLACEMENT_3D('',#1045,#1046,#1047);
#465=EDGE_LOOP('',(#1048,#1049,#1050,#1051));
#466=AXIS2_PLACEMENT_3D('',#1052,#1053,#1054);
#467=EDGE_LOOP('',(#1055,#1056,#1057,#1058));
#468=AXIS2_PLACEMENT_3D('',#1059,#1060,#1061);
#469=EDGE_LOOP('',(#1062,#1063,#1064,#1065));
#470=AXIS2_PLACEMENT_3D('',#1066,#1067,#1068);
#471=EDGE_LOOP('',(#1069,#1070,#1071,#1072));
#472=AXIS2_PLACEMENT_3D('',#1073,#1074,#1075);
#473=EDGE_LOOP('',(#1076,#1077,#1078,#1079));
#474=AXIS2_PLACEMENT_3D('',#1080,#1081,#1082);
#475=EDGE_LOOP('',(#1083,#1084,#1085,#1086));
#476=AXIS2_PLACEMENT_3D('',#1087,#1088,#1089);
#477=EDGE_LOOP('',(#1090,#1091,#1092,#1093));
#478=AXIS2_PLACEMENT_3D('',#1094,#1095,#1096);
#479=EDGE_LOOP('',(#1097,#1098,#1099,#1100));
#480=AXIS2_PLACEMENT_3D('',#1101,#1102,#1103);
#481=EDGE_LOOP('',(#1104,#1105,#1106,#1107));
#482=AXIS2_PLACEMENT_3D('',#1108,#1109,#1110);
#483=EDGE_LOOP('',(#1111,#1112,#1113,#1114));
#484=AXIS2_PLACEMENT_3D('',#1115,#1116,#1117);
#485=EDGE_LOOP('',(#1118,#1119,#1120,#1121));
#486=AXIS2_PLACEMENT_3D('',#1122,#1123,#1124);
#487=EDGE_LOOP('',(#1125,#1126,#1127,#1128));
#488=AXIS2_PLACEMENT_3D('',#1129,#1130,#1131);
#489=EDGE_LOOP('',(#1132,#1133,#1134,#1135));
#490=AXIS2_PLACEMENT_3D('',#1136,#1137,#1138);
#491=EDGE_LOOP('',(#1139,#1140,#1141,#1142));
#492=AXIS2_PLACEMENT_3D('',#1143,#1144,#1145);
#493=EDGE_LOOP('',(#1146,#1147,#1148,#1149));
#494=AXIS2_PLACEMENT_3D('',#1150,#1151,#1152);
#495=EDGE_LOOP('',(#1153,#1154,#1155,#1156));
#496=AXIS2_PLACEMENT_3D('',#1157,#1158,#1159);
#497=EDGE_LOOP('',(#1160,#1161,#1162,#1163));
#498=AXIS2_PLACEMENT_3D('',#1164,#1165,#1166);
#499=EDGE_LOOP('',(#1167,#1168,#1169,#1170));
#500=AXIS2_PLACEMENT_3D('',#1171,#1172,#1173);
#501=EDGE_LOOP('',(#1174,#1175,#1176,#1177));
#502=AXIS2_PLACEMENT_3D('',#1178,#1179,#1180);
#503=ORIENTED_EDGE('',*,*,#1181,.F.);
#504=ORIENTED_EDGE('',*,*,#1182,.F.);
#505=ORIENTED_EDGE('',*,*,#1183,.F.);
#506=ORIENTED_EDGE('',*,*,#1184,.T.);
#507=CARTESIAN_POINT('',(-4.6,2.576969600708,0.0));
#508=DIRECTION('',(0.0,0.0,-1.0));
#509=DIRECTION('',(1.0,0.0,0.0));
#510=ORIENTED_EDGE('',*,*,#1185,.T.);
#511=ORIENTED_EDGE('',*,*,#1186,.T.);
#512=ORIENTED_EDGE('',*,*,#1187,.T.);
#513=ORIENTED_EDGE('',*,*,#1182,.T.);
#514=ORIENTED_EDGE('',*,*,#1188,.T.);
#515=ORIENTED_EDGE('',*,*,#1189,.T.);
#516=ORIENTED_EDGE('',*,*,#1190,.T.);
#517=ORIENTED_EDGE('',*,*,#1191,.T.);
#518=ORIENTED_EDGE('',*,*,#1192,.T.);
#519=ORIENTED_EDGE('',*,*,#1193,.T.);
#520=ORIENTED_EDGE('',*,*,#1194,.T.);
#521=ORIENTED_EDGE('',*,*,#1195,.T.);
#522=ORIENTED_EDGE('',*,*,#1196,.T.);
#523=ORIENTED_EDGE('',*,*,#1197,.F.);
#524=ORIENTED_EDGE('',*,*,#1198,.F.);
#525=ORIENTED_EDGE('',*,*,#1199,.F.);
#526=ORIENTED_EDGE('',*,*,#1200,.F.);
#527=ORIENTED_EDGE('',*,*,#1201,.F.);
#528=ORIENTED_EDGE('',*,*,#1202,.F.);
#529=ORIENTED_EDGE('',*,*,#1203,.T.);
#530=ORIENTED_EDGE('',*,*,#1204,.F.);
#531=ORIENTED_EDGE('',*,*,#1205,.T.);
#532=ORIENTED_EDGE('',*,*,#1206,.F.);
#533=ORIENTED_EDGE('',*,*,#1207,.F.);
#534=ORIENTED_EDGE('',*,*,#1208,.F.);
#535=ORIENTED_EDGE('',*,*,#1209,.T.);
#536=ORIENTED_EDGE('',*,*,#1210,.F.);
#537=ORIENTED_EDGE('',*,*,#1211,.T.);
#538=ORIENTED_EDGE('',*,*,#1212,.F.);
#539=ORIENTED_EDGE('',*,*,#1213,.F.);
#540=ORIENTED_EDGE('',*,*,#1214,.F.);
#541=ORIENTED_EDGE('',*,*,#1215,.F.);
#542=ORIENTED_EDGE('',*,*,#1216,.F.);
#543=CARTESIAN_POINT('',(0.0,0.0,0.0));
#544=DIRECTION('',(0.0,0.0,1.0));
#545=DIRECTION('',(1.0,0.0,0.0));
#546=ORIENTED_EDGE('',*,*,#1217,.T.);
#547=ORIENTED_EDGE('',*,*,#1218,.F.);
#548=ORIENTED_EDGE('',*,*,#1219,.F.);
#549=ORIENTED_EDGE('',*,*,#1216,.T.);
#550=CARTESIAN_POINT('',(-3.975,3.975,0.0));
#551=DIRECTION('',(-1.0,0.0,0.0));
#552=DIRECTION('',(0.0,0.0,1.0));
#553=ORIENTED_EDGE('',*,*,#1219,.T.);
#554=ORIENTED_EDGE('',*,*,#1220,.F.);
#555=ORIENTED_EDGE('',*,*,#1221,.F.);
#556=ORIENTED_EDGE('',*,*,#1213,.T.);
#557=CARTESIAN_POINT('',(-0.225,3.975,0.0));
#558=DIRECTION('',(-0.0,1.0,0.0));
#559=DIRECTION('',(1.0,0.0,0.0));
#560=ORIENTED_EDGE('',*,*,#1221,.T.);
#561=ORIENTED_EDGE('',*,*,#1222,.F.);
#562=ORIENTED_EDGE('',*,*,#1223,.F.);
#563=ORIENTED_EDGE('',*,*,#1214,.T.);
#564=CARTESIAN_POINT('',(-0.225,0.225,0.0));
#565=DIRECTION('',(1.0,0.0,0.0));
#566=DIRECTION('',(0.0,1.0,0.0));
#567=ORIENTED_EDGE('',*,*,#1223,.T.);
#568=ORIENTED_EDGE('',*,*,#1224,.F.);
#569=ORIENTED_EDGE('',*,*,#1217,.F.);
#570=ORIENTED_EDGE('',*,*,#1215,.T.);
#571=CARTESIAN_POINT('',(-3.975,0.225,0.0));
#572=DIRECTION('',(0.0,-1.0,0.0));
#573=DIRECTION('',(0.0,0.0,-1.0));
#574=ORIENTED_EDGE('',*,*,#1224,.T.);
#575=ORIENTED_EDGE('',*,*,#1222,.T.);
#576=ORIENTED_EDGE('',*,*,#1220,.T.);
#577=ORIENTED_EDGE('',*,*,#1218,.T.);
#578=ORIENTED_EDGE('',*,*,#1225,.F.);
#579=ORIENTED_EDGE('',*,*,#1226,.F.);
#580=ORIENTED_EDGE('',*,*,#1227,.F.);
#581=ORIENTED_EDGE('',*,*,#1228,.F.);
#582=CARTESIAN_POINT('',(0.0,0.0,-9.05));
#583=DIRECTION('',(0.0,0.0,1.0));
#584=DIRECTION('',(1.0,0.0,0.0));
#585=ORIENTED_EDGE('',*,*,#1229,.T.);
#586=ORIENTED_EDGE('',*,*,#1230,.T.);
#587=ORIENTED_EDGE('',*,*,#1231,.T.);
#588=ORIENTED_EDGE('',*,*,#1232,.T.);
#589=ORIENTED_EDGE('',*,*,#1233,.F.);
#590=ORIENTED_EDGE('',*,*,#1234,.F.);
#591=ORIENTED_EDGE('',*,*,#1235,.F.);
#592=ORIENTED_EDGE('',*,*,#1236,.F.);
#593=CARTESIAN_POINT('',(0.0,0.0,-9.05));
#594=DIRECTION('',(0.0,0.0,1.0));
#595=DIRECTION('',(1.0,0.0,0.0));
#596=ORIENTED_EDGE('',*,*,#1237,.T.);
#597=ORIENTED_EDGE('',*,*,#1238,.T.);
#598=ORIENTED_EDGE('',*,*,#1239,.T.);
#599=ORIENTED_EDGE('',*,*,#1240,.T.);
#600=ORIENTED_EDGE('',*,*,#1241,.T.);
#601=ORIENTED_EDGE('',*,*,#1242,.T.);
#602=ORIENTED_EDGE('',*,*,#1243,.F.);
#603=ORIENTED_EDGE('',*,*,#1244,.F.);
#604=ORIENTED_EDGE('',*,*,#1245,.F.);
#605=ORIENTED_EDGE('',*,*,#1246,.F.);
#606=CARTESIAN_POINT('',(0.0,0.0,-9.05));
#607=DIRECTION('',(0.0,0.0,1.0));
#608=DIRECTION('',(1.0,0.0,0.0));
#609=ORIENTED_EDGE('',*,*,#1247,.T.);
#610=ORIENTED_EDGE('',*,*,#1248,.T.);
#611=ORIENTED_EDGE('',*,*,#1249,.T.);
#612=ORIENTED_EDGE('',*,*,#1250,.T.);
#613=ORIENTED_EDGE('',*,*,#1251,.T.);
#614=ORIENTED_EDGE('',*,*,#1252,.T.);
#615=ORIENTED_EDGE('',*,*,#1253,.F.);
#616=ORIENTED_EDGE('',*,*,#1254,.F.);
#617=ORIENTED_EDGE('',*,*,#1255,.F.);
#618=ORIENTED_EDGE('',*,*,#1256,.F.);
#619=CARTESIAN_POINT('',(0.0,0.0,-9.05));
#620=DIRECTION('',(0.0,0.0,1.0));
#621=DIRECTION('',(1.0,0.0,0.0));
#622=ORIENTED_EDGE('',*,*,#1257,.T.);
#623=ORIENTED_EDGE('',*,*,#1232,.F.);
#624=ORIENTED_EDGE('',*,*,#1258,.F.);
#625=ORIENTED_EDGE('',*,*,#1200,.T.);
#626=CARTESIAN_POINT('',(3.975,-3.975,0.0));
#627=DIRECTION('',(1.0,0.0,0.0));
#628=DIRECTION('',(0.0,1.0,0.0));
#629=ORIENTED_EDGE('',*,*,#1258,.T.);
#630=ORIENTED_EDGE('',*,*,#1231,.F.);
#631=ORIENTED_EDGE('',*,*,#1259,.F.);
#632=ORIENTED_EDGE('',*,*,#1197,.T.);
#633=CARTESIAN_POINT('',(0.225,-3.975,0.0));
#634=DIRECTION('',(0.0,-1.0,0.0));
#635=DIRECTION('',(0.0,0.0,-1.0));
#636=ORIENTED_EDGE('',*,*,#1259,.T.);
#637=ORIENTED_EDGE('',*,*,#1230,.F.);
#638=ORIENTED_EDGE('',*,*,#1260,.F.);
#639=ORIENTED_EDGE('',*,*,#1198,.T.);
#640=CARTESIAN_POINT('',(0.225,-0.225,0.0));
#641=DIRECTION('',(-1.0,0.0,0.0));
#642=DIRECTION('',(0.0,0.0,1.0));
#643=ORIENTED_EDGE('',*,*,#1260,.T.);
#644=ORIENTED_EDGE('',*,*,#1229,.F.);
#645=ORIENTED_EDGE('',*,*,#1257,.F.);
#646=ORIENTED_EDGE('',*,*,#1199,.T.);
#647=CARTESIAN_POINT('',(3.975,-0.225,0.0));
#648=DIRECTION('',(-0.0,1.0,0.0));
#649=DIRECTION('',(1.0,0.0,0.0));
#650=ORIENTED_EDGE('',*,*,#1261,.F.);
#651=ORIENTED_EDGE('',*,*,#1203,.F.);
#652=ORIENTED_EDGE('',*,*,#1262,.T.);
#653=ORIENTED_EDGE('',*,*,#1242,.F.);
#654=CARTESIAN_POINT('',(0.725,3.475,-4.525));
#655=DIRECTION('',(0.707106781186548,-0.707106781186548,0.0));
#656=DIRECTION('',(0.0,0.0,-1.0));
#657=ORIENTED_EDGE('',*,*,#1202,.T.);
#658=ORIENTED_EDGE('',*,*,#1263,.T.);
#659=ORIENTED_EDGE('',*,*,#1237,.F.);
#660=ORIENTED_EDGE('',*,*,#1262,.F.);
#661=CARTESIAN_POINT('',(0.225,3.975,0.0));
#662=DIRECTION('',(-1.0,0.0,0.0));
#663=DIRECTION('',(0.0,0.0,1.0));
#664=ORIENTED_EDGE('',*,*,#1264,.T.);
#665=ORIENTED_EDGE('',*,*,#1238,.F.);
#666=ORIENTED_EDGE('',*,*,#1263,.F.);
#667=ORIENTED_EDGE('',*,*,#1201,.T.);
#668=CARTESIAN_POINT('',(0.225,0.225,0.0));
#669=DIRECTION('',(0.0,-1.0,0.0));
#670=DIRECTION('',(0.0,0.0,-1.0));
#671=ORIENTED_EDGE('',*,*,#1239,.F.);
#672=ORIENTED_EDGE('',*,*,#1264,.F.);
#673=ORIENTED_EDGE('',*,*,#1206,.T.);
#674=ORIENTED_EDGE('',*,*,#1265,.T.);
#675=CARTESIAN_POINT('',(3.975,0.225,0.0));
#676=DIRECTION('',(1.0,0.0,0.0));
#677=DIRECTION('',(0.0,1.0,0.0));
#678=ORIENTED_EDGE('',*,*,#1265,.F.);
#679=ORIENTED_EDGE('',*,*,#1205,.F.);
#680=ORIENTED_EDGE('',*,*,#1266,.T.);
#681=ORIENTED_EDGE('',*,*,#1240,.F.);
#682=CARTESIAN_POINT('',(3.475,3.475,-4.525));
#683=DIRECTION('',(-0.707106781186548,-0.707106781186548,0.0));
#684=DIRECTION('',(-0.707106781186548,0.707106781186548,0.0));
#685=ORIENTED_EDGE('',*,*,#1241,.F.);
#686=ORIENTED_EDGE('',*,*,#1266,.F.);
#687=ORIENTED_EDGE('',*,*,#1204,.T.);
#688=ORIENTED_EDGE('',*,*,#1261,.T.);
#689=CARTESIAN_POINT('',(3.975,3.975,0.0));
#690=DIRECTION('',(-0.0,1.0,0.0));
#691=DIRECTION('',(1.0,0.0,0.0));
#692=ORIENTED_EDGE('',*,*,#1267,.F.);
#693=ORIENTED_EDGE('',*,*,#1211,.F.);
#694=ORIENTED_EDGE('',*,*,#1268,.T.);
#695=ORIENTED_EDGE('',*,*,#1252,.F.);
#696=CARTESIAN_POINT('',(-0.725,-0.725,-4.525));
#697=DIRECTION('',(-0.707106781186548,-0.707106781186548,0.0));
#698=DIRECTION('',(-0.707106781186548,0.707106781186548,0.0));
#699=ORIENTED_EDGE('',*,*,#1210,.T.);
#700=ORIENTED_EDGE('',*,*,#1269,.T.);
#701=ORIENTED_EDGE('',*,*,#1247,.F.);
#702=ORIENTED_EDGE('',*,*,#1268,.F.);
#703=CARTESIAN_POINT('',(-0.225,-0.225,0.0));
#704=DIRECTION('',(-0.0,1.0,0.0));
#705=DIRECTION('',(1.0,0.0,0.0));
#706=ORIENTED_EDGE('',*,*,#1269,.F.);
#707=ORIENTED_EDGE('',*,*,#1209,.F.);
#708=ORIENTED_EDGE('',*,*,#1270,.T.);
#709=ORIENTED_EDGE('',*,*,#1248,.F.);
#710=CARTESIAN_POINT('',(-3.475,-0.725,-4.525));
#711=DIRECTION('',(0.707106781186548,-0.707106781186548,0.0));
#712=DIRECTION('',(0.0,0.0,-1.0));
#713=ORIENTED_EDGE('',*,*,#1208,.T.);
#714=ORIENTED_EDGE('',*,*,#1271,.T.);
#715=ORIENTED_EDGE('',*,*,#1249,.F.);
#716=ORIENTED_EDGE('',*,*,#1270,.F.);
#717=CARTESIAN_POINT('',(-3.975,-0.225,0.0));
#718=DIRECTION('',(-1.0,0.0,0.0));
#719=DIRECTION('',(0.0,0.0,1.0));
#720=ORIENTED_EDGE('',*,*,#1272,.T.);
#721=ORIENTED_EDGE('',*,*,#1250,.F.);
#722=ORIENTED_EDGE('',*,*,#1271,.F.);
#723=ORIENTED_EDGE('',*,*,#1207,.T.);
#724=CARTESIAN_POINT('',(-3.975,-3.975,0.0));
#725=DIRECTION('',(0.0,-1.0,0.0));
#726=DIRECTION('',(0.0,0.0,-1.0));
#727=ORIENTED_EDGE('',*,*,#1251,.F.);
#728=ORIENTED_EDGE('',*,*,#1272,.F.);
#729=ORIENTED_EDGE('',*,*,#1212,.T.);
#730=ORIENTED_EDGE('',*,*,#1267,.T.);
#731=CARTESIAN_POINT('',(-0.225,-3.975,0.0));
#732=DIRECTION('',(1.0,0.0,0.0));
#733=DIRECTION('',(0.0,1.0,0.0));
#734=ORIENTED_EDGE('',*,*,#1273,.T.);
#735=ORIENTED_EDGE('',*,*,#1274,.F.);
#736=ORIENTED_EDGE('',*,*,#1275,.F.);
#737=ORIENTED_EDGE('',*,*,#1228,.T.);
#738=CARTESIAN_POINT('',(-2.67,2.67,-9.05));
#739=DIRECTION('',(-1.0,0.0,0.0));
#740=DIRECTION('',(0.0,0.0,1.0));
#741=ORIENTED_EDGE('',*,*,#1275,.T.);
#742=ORIENTED_EDGE('',*,*,#1276,.F.);
#743=ORIENTED_EDGE('',*,*,#1277,.F.);
#744=ORIENTED_EDGE('',*,*,#1225,.T.);
#745=CARTESIAN_POINT('',(-1.53,2.67,-9.05));
#746=DIRECTION('',(-0.0,1.0,0.0));
#747=DIRECTION('',(1.0,0.0,0.0));
#748=ORIENTED_EDGE('',*,*,#1277,.T.);
#749=ORIENTED_EDGE('',*,*,#1278,.F.);
#750=ORIENTED_EDGE('',*,*,#1279,.F.);
#751=ORIENTED_EDGE('',*,*,#1226,.T.);
#752=CARTESIAN_POINT('',(-1.53,1.53,-9.05));
#753=DIRECTION('',(1.0,0.0,0.0));
#754=DIRECTION('',(0.0,1.0,0.0));
#755=ORIENTED_EDGE('',*,*,#1279,.T.);
#756=ORIENTED_EDGE('',*,*,#1280,.F.);
#757=ORIENTED_EDGE('',*,*,#1273,.F.);
#758=ORIENTED_EDGE('',*,*,#1227,.T.);
#759=CARTESIAN_POINT('',(-2.67,1.53,-9.05));
#760=DIRECTION('',(0.0,-1.0,0.0));
#761=DIRECTION('',(0.0,0.0,-1.0));
#762=ORIENTED_EDGE('',*,*,#1280,.T.);
#763=ORIENTED_EDGE('',*,*,#1278,.T.);
#764=ORIENTED_EDGE('',*,*,#1276,.T.);
#765=ORIENTED_EDGE('',*,*,#1274,.T.);
#766=CARTESIAN_POINT('',(0.0,0.0,-3.35));
#767=DIRECTION('',(0.0,0.0,1.0));
#768=DIRECTION('',(1.0,0.0,0.0));
#769=ORIENTED_EDGE('',*,*,#1281,.T.);
#770=ORIENTED_EDGE('',*,*,#1282,.T.);
#771=ORIENTED_EDGE('',*,*,#1283,.T.);
#772=ORIENTED_EDGE('',*,*,#1284,.T.);
#773=CARTESIAN_POINT('',(0.0,0.0,-3.35));
#774=DIRECTION('',(0.0,0.0,1.0));
#775=DIRECTION('',(1.0,0.0,0.0));
#776=ORIENTED_EDGE('',*,*,#1285,.T.);
#777=ORIENTED_EDGE('',*,*,#1286,.T.);
#778=ORIENTED_EDGE('',*,*,#1287,.T.);
#779=ORIENTED_EDGE('',*,*,#1288,.T.);
#780=CARTESIAN_POINT('',(0.0,0.0,-3.35));
#781=DIRECTION('',(0.0,0.0,1.0));
#782=DIRECTION('',(1.0,0.0,0.0));
#783=ORIENTED_EDGE('',*,*,#1289,.T.);
#784=ORIENTED_EDGE('',*,*,#1290,.T.);
#785=ORIENTED_EDGE('',*,*,#1291,.T.);
#786=ORIENTED_EDGE('',*,*,#1292,.T.);
#787=CARTESIAN_POINT('',(0.0,0.0,-3.35));
#788=DIRECTION('',(0.0,0.0,1.0));
#789=DIRECTION('',(1.0,0.0,0.0));
#790=ORIENTED_EDGE('',*,*,#1293,.T.);
#791=ORIENTED_EDGE('',*,*,#1284,.F.);
#792=ORIENTED_EDGE('',*,*,#1294,.F.);
#793=ORIENTED_EDGE('',*,*,#1246,.T.);
#794=CARTESIAN_POINT('',(2.67,2.67,-9.05));
#795=DIRECTION('',(-0.0,1.0,0.0));
#796=DIRECTION('',(1.0,0.0,0.0));
#797=ORIENTED_EDGE('',*,*,#1294,.T.);
#798=ORIENTED_EDGE('',*,*,#1283,.F.);
#799=ORIENTED_EDGE('',*,*,#1295,.F.);
#800=ORIENTED_EDGE('',*,*,#1243,.T.);
#801=CARTESIAN_POINT('',(2.67,1.53,-9.05));
#802=DIRECTION('',(1.0,0.0,0.0));
#803=DIRECTION('',(0.0,1.0,0.0));
#804=ORIENTED_EDGE('',*,*,#1295,.T.);
#805=ORIENTED_EDGE('',*,*,#1282,.F.);
#806=ORIENTED_EDGE('',*,*,#1296,.F.);
#807=ORIENTED_EDGE('',*,*,#1244,.T.);
#808=CARTESIAN_POINT('',(1.53,1.53,-9.05));
#809=DIRECTION('',(0.0,-1.0,0.0));
#810=DIRECTION('',(0.0,0.0,-1.0));
#811=ORIENTED_EDGE('',*,*,#1296,.T.);
#812=ORIENTED_EDGE('',*,*,#1281,.F.);
#813=ORIENTED_EDGE('',*,*,#1293,.F.);
#814=ORIENTED_EDGE('',*,*,#1245,.T.);
#815=CARTESIAN_POINT('',(1.53,2.67,-9.05));
#816=DIRECTION('',(-1.0,0.0,0.0));
#817=DIRECTION('',(0.0,0.0,1.0));
#818=ORIENTED_EDGE('',*,*,#1297,.T.);
#819=ORIENTED_EDGE('',*,*,#1288,.F.);
#820=ORIENTED_EDGE('',*,*,#1298,.F.);
#821=ORIENTED_EDGE('',*,*,#1256,.T.);
#822=CARTESIAN_POINT('',(-2.67,-2.67,-9.05));
#823=DIRECTION('',(0.0,-1.0,0.0));
#824=DIRECTION('',(0.0,0.0,-1.0));
#825=ORIENTED_EDGE('',*,*,#1298,.T.);
#826=ORIENTED_EDGE('',*,*,#1287,.F.);
#827=ORIENTED_EDGE('',*,*,#1299,.F.);
#828=ORIENTED_EDGE('',*,*,#1253,.T.);
#829=CARTESIAN_POINT('',(-2.67,-1.53,-9.05));
#830=DIRECTION('',(-1.0,0.0,0.0));
#831=DIRECTION('',(0.0,0.0,1.0));
#832=ORIENTED_EDGE('',*,*,#1299,.T.);
#833=ORIENTED_EDGE('',*,*,#1286,.F.);
#834=ORIENTED_EDGE('',*,*,#1300,.F.);
#835=ORIENTED_EDGE('',*,*,#1254,.T.);
#836=CARTESIAN_POINT('',(-1.53,-1.53,-9.05));
#837=DIRECTION('',(-0.0,1.0,0.0));
#838=DIRECTION('',(1.0,0.0,0.0));
#839=ORIENTED_EDGE('',*,*,#1300,.T.);
#840=ORIENTED_EDGE('',*,*,#1285,.F.);
#841=ORIENTED_EDGE('',*,*,#1297,.F.);
#842=ORIENTED_EDGE('',*,*,#1255,.T.);
#843=CARTESIAN_POINT('',(-1.53,-2.67,-9.05));
#844=DIRECTION('',(1.0,0.0,0.0));
#845=DIRECTION('',(0.0,1.0,0.0));
#846=ORIENTED_EDGE('',*,*,#1301,.T.);
#847=ORIENTED_EDGE('',*,*,#1292,.F.);
#848=ORIENTED_EDGE('',*,*,#1302,.F.);
#849=ORIENTED_EDGE('',*,*,#1236,.T.);
#850=CARTESIAN_POINT('',(2.67,-2.67,-9.05));
#851=DIRECTION('',(1.0,0.0,0.0));
#852=DIRECTION('',(0.0,1.0,0.0));
#853=ORIENTED_EDGE('',*,*,#1302,.T.);
#854=ORIENTED_EDGE('',*,*,#1291,.F.);
#855=ORIENTED_EDGE('',*,*,#1303,.F.);
#856=ORIENTED_EDGE('',*,*,#1233,.T.);
#857=CARTESIAN_POINT('',(1.53,-2.67,-9.05));
#858=DIRECTION('',(0.0,-1.0,0.0));
#859=DIRECTION('',(0.0,0.0,-1.0));
#860=ORIENTED_EDGE('',*,*,#1303,.T.);
#861=ORIENTED_EDGE('',*,*,#1290,.F.);
#862=ORIENTED_EDGE('',*,*,#1304,.F.);
#863=ORIENTED_EDGE('',*,*,#1234,.T.);
#864=CARTESIAN_POINT('',(1.53,-1.53,-9.05));
#865=DIRECTION('',(-1.0,0.0,0.0));
#866=DIRECTION('',(0.0,0.0,1.0));
#867=ORIENTED_EDGE('',*,*,#1304,.T.);
#868=ORIENTED_EDGE('',*,*,#1289,.F.);
#869=ORIENTED_EDGE('',*,*,#1301,.F.);
#870=ORIENTED_EDGE('',*,*,#1235,.T.);
#871=CARTESIAN_POINT('',(2.67,-1.53,-9.05));
#872=DIRECTION('',(-0.0,1.0,0.0));
#873=DIRECTION('',(1.0,0.0,0.0));
#874=ORIENTED_EDGE('',*,*,#1305,.F.);
#875=ORIENTED_EDGE('',*,*,#1196,.F.);
#876=ORIENTED_EDGE('',*,*,#1306,.T.);
#877=ORIENTED_EDGE('',*,*,#1307,.F.);
#878=CARTESIAN_POINT('',(4.25,4.3,18.31558));
#879=DIRECTION('',(-0.0,0.0,1.0));
#880=DIRECTION('',(0.0,1.0,0.0));
#881=ORIENTED_EDGE('',*,*,#1308,.F.);
#882=ORIENTED_EDGE('',*,*,#1309,.T.);
#883=ORIENTED_EDGE('',*,*,#1310,.F.);
#884=ORIENTED_EDGE('',*,*,#1311,.T.);
#885=ORIENTED_EDGE('',*,*,#1312,.F.);
#886=ORIENTED_EDGE('',*,*,#1313,.F.);
#887=ORIENTED_EDGE('',*,*,#1184,.F.);
#888=ORIENTED_EDGE('',*,*,#1314,.F.);
#889=ORIENTED_EDGE('',*,*,#1315,.T.);
#890=ORIENTED_EDGE('',*,*,#1316,.F.);
#891=ORIENTED_EDGE('',*,*,#1307,.T.);
#892=ORIENTED_EDGE('',*,*,#1317,.F.);
#893=ORIENTED_EDGE('',*,*,#1318,.F.);
#894=ORIENTED_EDGE('',*,*,#1319,.F.);
#895=ORIENTED_EDGE('',*,*,#1320,.F.);
#896=ORIENTED_EDGE('',*,*,#1321,.F.);
#897=ORIENTED_EDGE('',*,*,#1322,.F.);
#898=ORIENTED_EDGE('',*,*,#1323,.F.);
#899=ORIENTED_EDGE('',*,*,#1324,.F.);
#900=ORIENTED_EDGE('',*,*,#1325,.F.);
#901=ORIENTED_EDGE('',*,*,#1326,.F.);
#902=ORIENTED_EDGE('',*,*,#1327,.F.);
#903=ORIENTED_EDGE('',*,*,#1328,.F.);
#904=ORIENTED_EDGE('',*,*,#1329,.F.);
#905=ORIENTED_EDGE('',*,*,#1330,.F.);
#906=ORIENTED_EDGE('',*,*,#1331,.F.);
#907=ORIENTED_EDGE('',*,*,#1332,.F.);
#908=ORIENTED_EDGE('',*,*,#1333,.F.);
#909=ORIENTED_EDGE('',*,*,#1334,.F.);
#910=CARTESIAN_POINT('',(0.0,0.0,-12.8));
#911=DIRECTION('',(0.0,0.0,1.0));
#912=DIRECTION('',(1.0,0.0,0.0));
#913=ORIENTED_EDGE('',*,*,#1335,.F.);
#914=ORIENTED_EDGE('',*,*,#1318,.T.);
#915=ORIENTED_EDGE('',*,*,#1336,.T.);
#916=ORIENTED_EDGE('',*,*,#1337,.F.);
#917=CARTESIAN_POINT('',(-4.375,-4.3,-12.8));
#918=DIRECTION('',(-0.0,0.0,1.0));
#919=DIRECTION('',(1.0,0.0,0.0));
#920=ORIENTED_EDGE('',*,*,#1338,.F.);
#921=ORIENTED_EDGE('',*,*,#1339,.T.);
#922=ORIENTED_EDGE('',*,*,#1337,.T.);
#923=CARTESIAN_POINT('',(-4.375,-4.3,-13.8));
#924=DIRECTION('',(0.0,0.0,-1.0));
#925=DIRECTION('',(1.0,9.037365974724E-10,0.0));
#926=ORIENTED_EDGE('',*,*,#1339,.F.);
#927=ORIENTED_EDGE('',*,*,#1338,.T.);
#928=ORIENTED_EDGE('',*,*,#1340,.T.);
#929=CARTESIAN_POINT('',(-4.375,-4.3,-13.8));
#930=DIRECTION('',(0.0,0.0,-1.0));
#931=DIRECTION('',(-1.0,-9.037366200239E-10,0.0));
#932=ORIENTED_EDGE('',*,*,#1336,.F.);
#933=ORIENTED_EDGE('',*,*,#1317,.T.);
#934=ORIENTED_EDGE('',*,*,#1335,.T.);
#935=ORIENTED_EDGE('',*,*,#1340,.F.);
#936=CARTESIAN_POINT('',(-4.375,-4.3,-12.8));
#937=DIRECTION('',(-0.0,0.0,1.0));
#938=DIRECTION('',(1.0,0.0,0.0));
#939=ORIENTED_EDGE('',*,*,#1316,.T.);
#940=ORIENTED_EDGE('',*,*,#1341,.F.);
#941=ORIENTED_EDGE('',*,*,#1185,.F.);
#942=ORIENTED_EDGE('',*,*,#1305,.T.);
#943=CARTESIAN_POINT('',(4.75,4.8,0.0));
#944=DIRECTION('',(-0.0,1.0,0.0));
#945=DIRECTION('',(1.0,0.0,0.0));
#946=ORIENTED_EDGE('',*,*,#1342,.F.);
#947=ORIENTED_EDGE('',*,*,#1186,.F.);
#948=ORIENTED_EDGE('',*,*,#1341,.T.);
#949=ORIENTED_EDGE('',*,*,#1315,.F.);
#950=CARTESIAN_POINT('',(-4.25,4.3,18.31558));
#951=DIRECTION('',(0.0,0.0,1.0));
#952=DIRECTION('',(-1.0,0.0,0.0));
#953=ORIENTED_EDGE('',*,*,#1314,.T.);
#954=ORIENTED_EDGE('',*,*,#1183,.T.);
#955=ORIENTED_EDGE('',*,*,#1187,.F.);
#956=ORIENTED_EDGE('',*,*,#1342,.T.);
#957=CARTESIAN_POINT('',(-4.75,4.8,0.0));
#958=DIRECTION('',(-1.0,0.0,0.0));
#959=DIRECTION('',(0.0,0.0,1.0));
#960=ORIENTED_EDGE('',*,*,#1189,.F.);
#961=ORIENTED_EDGE('',*,*,#1343,.F.);
#962=ORIENTED_EDGE('',*,*,#1312,.T.);
#963=ORIENTED_EDGE('',*,*,#1344,.F.);
#964=CARTESIAN_POINT('',(-4.75,4.8,0.0));
#965=DIRECTION('',(-1.0,0.0,0.0));
#966=DIRECTION('',(0.0,0.0,1.0));
#967=ORIENTED_EDGE('',*,*,#1181,.T.);
#968=ORIENTED_EDGE('',*,*,#1313,.T.);
#969=ORIENTED_EDGE('',*,*,#1343,.T.);
#970=ORIENTED_EDGE('',*,*,#1188,.F.);
#971=CARTESIAN_POINT('',(-4.6,2.576969600708,0.0));
#972=DIRECTION('',(0.0,0.0,-1.0));
#973=DIRECTION('',(1.0,0.0,0.0));
#974=ORIENTED_EDGE('',*,*,#1345,.F.);
#975=ORIENTED_EDGE('',*,*,#1190,.F.);
#976=ORIENTED_EDGE('',*,*,#1344,.T.);
#977=ORIENTED_EDGE('',*,*,#1311,.F.);
#978=CARTESIAN_POINT('',(-4.25,-4.3,18.31558));
#979=DIRECTION('',(-0.0,0.0,1.0));
#980=DIRECTION('',(0.0,-1.0,0.0));
#981=ORIENTED_EDGE('',*,*,#1193,.F.);
#982=ORIENTED_EDGE('',*,*,#1346,.T.);
#983=ORIENTED_EDGE('',*,*,#1347,.F.);
#984=ORIENTED_EDGE('',*,*,#1348,.F.);
#985=ORIENTED_EDGE('',*,*,#1191,.F.);
#986=ORIENTED_EDGE('',*,*,#1345,.T.);
#987=ORIENTED_EDGE('',*,*,#1310,.T.);
#988=ORIENTED_EDGE('',*,*,#1349,.F.);
#989=CARTESIAN_POINT('',(-4.75,-4.8,0.0));
#990=DIRECTION('',(0.0,-1.0,0.0));
#991=DIRECTION('',(0.0,0.0,-1.0));
#992=ORIENTED_EDGE('',*,*,#1350,.F.);
#993=ORIENTED_EDGE('',*,*,#1194,.F.);
#994=ORIENTED_EDGE('',*,*,#1349,.T.);
#995=ORIENTED_EDGE('',*,*,#1309,.F.);
#996=CARTESIAN_POINT('',(4.25,-4.3,18.31558));
#997=DIRECTION('',(-0.0,0.0,1.0));
#998=DIRECTION('',(1.0,0.0,0.0));
#999=ORIENTED_EDGE('',*,*,#1195,.F.);
#1000=ORIENTED_EDGE('',*,*,#1350,.T.);
#1001=ORIENTED_EDGE('',*,*,#1308,.T.);
#1002=ORIENTED_EDGE('',*,*,#1306,.F.);
#1003=CARTESIAN_POINT('',(4.75,-4.8,0.0));
#1004=DIRECTION('',(1.0,0.0,0.0));
#1005=DIRECTION('',(0.0,1.0,0.0));
#1006=ORIENTED_EDGE('',*,*,#1351,.F.);
#1007=ORIENTED_EDGE('',*,*,#1352,.F.);
#1008=ORIENTED_EDGE('',*,*,#1353,.F.);
#1009=ORIENTED_EDGE('',*,*,#1348,.T.);
#1010=CARTESIAN_POINT('',(-1.7,0.0,0.0));
#1011=DIRECTION('',(1.0,0.0,0.0));
#1012=DIRECTION('',(0.0,1.0,0.0));
#1013=ORIENTED_EDGE('',*,*,#1353,.T.);
#1014=ORIENTED_EDGE('',*,*,#1354,.T.);
#1015=ORIENTED_EDGE('',*,*,#1355,.F.);
#1016=ORIENTED_EDGE('',*,*,#1192,.F.);
#1017=CARTESIAN_POINT('',(-1.7,-4.8,0.0));
#1018=DIRECTION('',(0.0,-0.866025403784429,0.500000000000017));
#1019=DIRECTION('',(-1.0,0.0,0.0));
#1020=ORIENTED_EDGE('',*,*,#1355,.T.);
#1021=ORIENTED_EDGE('',*,*,#1356,.T.);
#1022=ORIENTED_EDGE('',*,*,#1357,.T.);
#1023=ORIENTED_EDGE('',*,*,#1346,.F.);
#1024=CARTESIAN_POINT('',(1.7,0.0,0.0));
#1025=DIRECTION('',(1.0,0.0,0.0));
#1026=DIRECTION('',(0.0,1.0,0.0));
#1027=ORIENTED_EDGE('',*,*,#1357,.F.);
#1028=ORIENTED_EDGE('',*,*,#1358,.F.);
#1029=ORIENTED_EDGE('',*,*,#1351,.T.);
#1030=ORIENTED_EDGE('',*,*,#1347,.T.);
#1031=CARTESIAN_POINT('',(-1.7,-6.1,-3.2));
#1032=DIRECTION('',(0.0,0.0,-1.0));
#1033=DIRECTION('',(0.0,-1.0,0.0));
#1034=ORIENTED_EDGE('',*,*,#1358,.T.);
#1035=ORIENTED_EDGE('',*,*,#1356,.F.);
#1036=ORIENTED_EDGE('',*,*,#1354,.F.);
#1037=ORIENTED_EDGE('',*,*,#1352,.T.);
#1038=CARTESIAN_POINT('',(-1.7,-6.1,-2.25166604984));
#1039=DIRECTION('',(0.0,-1.0,0.0));
#1040=DIRECTION('',(0.0,0.0,-1.0));
#1041=ORIENTED_EDGE('',*,*,#1359,.T.);
#1042=ORIENTED_EDGE('',*,*,#1360,.F.);
#1043=ORIENTED_EDGE('',*,*,#1361,.F.);
#1044=ORIENTED_EDGE('',*,*,#1322,.T.);
#1045=CARTESIAN_POINT('',(2.67,3.025,-12.8));
#1046=DIRECTION('',(1.0,0.0,0.0));
#1047=DIRECTION('',(0.0,1.0,0.0));
#1048=ORIENTED_EDGE('',*,*,#1361,.T.);
#1049=ORIENTED_EDGE('',*,*,#1362,.F.);
#1050=ORIENTED_EDGE('',*,*,#1363,.F.);
#1051=ORIENTED_EDGE('',*,*,#1319,.T.);
#1052=CARTESIAN_POINT('',(1.53,3.025,-12.8));
#1053=DIRECTION('',(-0.0,1.0,0.0));
#1054=DIRECTION('',(1.0,0.0,0.0));
#1055=ORIENTED_EDGE('',*,*,#1363,.T.);
#1056=ORIENTED_EDGE('',*,*,#1364,.F.);
#1057=ORIENTED_EDGE('',*,*,#1365,.F.);
#1058=ORIENTED_EDGE('',*,*,#1320,.T.);
#1059=CARTESIAN_POINT('',(1.53,2.475,-12.8));
#1060=DIRECTION('',(-1.0,0.0,0.0));
#1061=DIRECTION('',(0.0,0.0,1.0));
#1062=ORIENTED_EDGE('',*,*,#1365,.T.);
#1063=ORIENTED_EDGE('',*,*,#1366,.F.);
#1064=ORIENTED_EDGE('',*,*,#1359,.F.);
#1065=ORIENTED_EDGE('',*,*,#1321,.T.);
#1066=CARTESIAN_POINT('',(2.67,2.475,-12.8));
#1067=DIRECTION('',(0.0,-1.0,0.0));
#1068=DIRECTION('',(0.0,0.0,-1.0));
#1069=ORIENTED_EDGE('',*,*,#1366,.T.);
#1070=ORIENTED_EDGE('',*,*,#1364,.T.);
#1071=ORIENTED_EDGE('',*,*,#1362,.T.);
#1072=ORIENTED_EDGE('',*,*,#1360,.T.);
#1073=CARTESIAN_POINT('',(0.0,0.0,-16.0));
#1074=DIRECTION('',(0.0,0.0,-1.0));
#1075=DIRECTION('',(0.0,-1.0,0.0));
#1076=ORIENTED_EDGE('',*,*,#1367,.T.);
#1077=ORIENTED_EDGE('',*,*,#1368,.T.);
#1078=ORIENTED_EDGE('',*,*,#1369,.T.);
#1079=ORIENTED_EDGE('',*,*,#1370,.T.);
#1080=CARTESIAN_POINT('',(0.0,0.0,-16.0));
#1081=DIRECTION('',(0.0,0.0,-1.0));
#1082=DIRECTION('',(0.0,-1.0,0.0));
#1083=ORIENTED_EDGE('',*,*,#1371,.T.);
#1084=ORIENTED_EDGE('',*,*,#1372,.T.);
#1085=ORIENTED_EDGE('',*,*,#1373,.T.);
#1086=ORIENTED_EDGE('',*,*,#1374,.T.);
#1087=CARTESIAN_POINT('',(0.0,0.0,-16.0));
#1088=DIRECTION('',(0.0,0.0,-1.0));
#1089=DIRECTION('',(0.0,-1.0,0.0));
#1090=ORIENTED_EDGE('',*,*,#1375,.T.);
#1091=ORIENTED_EDGE('',*,*,#1376,.T.);
#1092=ORIENTED_EDGE('',*,*,#1377,.T.);
#1093=ORIENTED_EDGE('',*,*,#1378,.T.);
#1094=CARTESIAN_POINT('',(0.0,0.0,-16.0));
#1095=DIRECTION('',(0.0,0.0,-1.0));
#1096=DIRECTION('',(0.0,-1.0,0.0));
#1097=ORIENTED_EDGE('',*,*,#1379,.T.);
#1098=ORIENTED_EDGE('',*,*,#1370,.F.);
#1099=ORIENTED_EDGE('',*,*,#1380,.F.);
#1100=ORIENTED_EDGE('',*,*,#1326,.T.);
#1101=CARTESIAN_POINT('',(2.67,-3.025,-12.8));
#1102=DIRECTION('',(0.0,-1.0,0.0));
#1103=DIRECTION('',(0.0,0.0,-1.0));
#1104=ORIENTED_EDGE('',*,*,#1380,.T.);
#1105=ORIENTED_EDGE('',*,*,#1369,.F.);
#1106=ORIENTED_EDGE('',*,*,#1381,.F.);
#1107=ORIENTED_EDGE('',*,*,#1323,.T.);
#1108=CARTESIAN_POINT('',(2.67,-2.475,-12.8));
#1109=DIRECTION('',(1.0,0.0,0.0));
#1110=DIRECTION('',(0.0,1.0,0.0));
#1111=ORIENTED_EDGE('',*,*,#1381,.T.);
#1112=ORIENTED_EDGE('',*,*,#1368,.F.);
#1113=ORIENTED_EDGE('',*,*,#1382,.F.);
#1114=ORIENTED_EDGE('',*,*,#1324,.T.);
#1115=CARTESIAN_POINT('',(1.53,-2.475,-12.8));
#1116=DIRECTION('',(-0.0,1.0,0.0));
#1117=DIRECTION('',(1.0,0.0,0.0));
#1118=ORIENTED_EDGE('',*,*,#1382,.T.);
#1119=ORIENTED_EDGE('',*,*,#1367,.F.);
#1120=ORIENTED_EDGE('',*,*,#1379,.F.);
#1121=ORIENTED_EDGE('',*,*,#1325,.T.);
#1122=CARTESIAN_POINT('',(1.53,-3.025,-12.8));
#1123=DIRECTION('',(-1.0,0.0,0.0));
#1124=DIRECTION('',(0.0,0.0,1.0));
#1125=ORIENTED_EDGE('',*,*,#1383,.T.);
#1126=ORIENTED_EDGE('',*,*,#1374,.F.);
#1127=ORIENTED_EDGE('',*,*,#1384,.F.);
#1128=ORIENTED_EDGE('',*,*,#1330,.T.);
#1129=CARTESIAN_POINT('',(-2.67,3.025,-12.8));
#1130=DIRECTION('',(-0.0,1.0,0.0));
#1131=DIRECTION('',(1.0,0.0,0.0));
#1132=ORIENTED_EDGE('',*,*,#1384,.T.);
#1133=ORIENTED_EDGE('',*,*,#1373,.F.);
#1134=ORIENTED_EDGE('',*,*,#1385,.F.);
#1135=ORIENTED_EDGE('',*,*,#1327,.T.);
#1136=CARTESIAN_POINT('',(-2.67,2.475,-12.8));
#1137=DIRECTION('',(-1.0,0.0,0.0));
#1138=DIRECTION('',(0.0,0.0,1.0));
#1139=ORIENTED_EDGE('',*,*,#1385,.T.);
#1140=ORIENTED_EDGE('',*,*,#1372,.F.);
#1141=ORIENTED_EDGE('',*,*,#1386,.F.);
#1142=ORIENTED_EDGE('',*,*,#1328,.T.);
#1143=CARTESIAN_POINT('',(-1.53,2.475,-12.8));
#1144=DIRECTION('',(0.0,-1.0,0.0));
#1145=DIRECTION('',(0.0,0.0,-1.0));
#1146=ORIENTED_EDGE('',*,*,#1386,.T.);
#1147=ORIENTED_EDGE('',*,*,#1371,.F.);
#1148=ORIENTED_EDGE('',*,*,#1383,.F.);
#1149=ORIENTED_EDGE('',*,*,#1329,.T.);
#1150=CARTESIAN_POINT('',(-1.53,3.025,-12.8));
#1151=DIRECTION('',(1.0,0.0,0.0));
#1152=DIRECTION('',(0.0,1.0,0.0));
#1153=ORIENTED_EDGE('',*,*,#1387,.T.);
#1154=ORIENTED_EDGE('',*,*,#1378,.F.);
#1155=ORIENTED_EDGE('',*,*,#1388,.F.);
#1156=ORIENTED_EDGE('',*,*,#1334,.T.);
#1157=CARTESIAN_POINT('',(-2.67,-3.025,-12.8));
#1158=DIRECTION('',(-1.0,0.0,0.0));
#1159=DIRECTION('',(0.0,0.0,1.0));
#1160=ORIENTED_EDGE('',*,*,#1388,.T.);
#1161=ORIENTED_EDGE('',*,*,#1377,.F.);
#1162=ORIENTED_EDGE('',*,*,#1389,.F.);
#1163=ORIENTED_EDGE('',*,*,#1331,.T.);
#1164=CARTESIAN_POINT('',(-1.53,-3.025,-12.8));
#1165=DIRECTION('',(0.0,-1.0,0.0));
#1166=DIRECTION('',(0.0,0.0,-1.0));
#1167=ORIENTED_EDGE('',*,*,#1389,.T.);
#1168=ORIENTED_EDGE('',*,*,#1376,.F.);
#1169=ORIENTED_EDGE('',*,*,#1390,.F.);
#1170=ORIENTED_EDGE('',*,*,#1332,.T.);
#1171=CARTESIAN_POINT('',(-1.53,-2.475,-12.8));
#1172=DIRECTION('',(1.0,0.0,0.0));
#1173=DIRECTION('',(0.0,1.0,0.0));
#1174=ORIENTED_EDGE('',*,*,#1390,.T.);
#1175=ORIENTED_EDGE('',*,*,#1375,.F.);
#1176=ORIENTED_EDGE('',*,*,#1387,.F.);
#1177=ORIENTED_EDGE('',*,*,#1333,.T.);
#1178=CARTESIAN_POINT('',(-2.67,-2.475,-12.8));
#1179=DIRECTION('',(-0.0,1.0,0.0));
#1180=DIRECTION('',(1.0,0.0,0.0));
#1181=EDGE_CURVE('',#1391,#1392,#1393,.T.);
#1182=EDGE_CURVE('',#1394,#1391,#1395,.T.);
#1183=EDGE_CURVE('',#1396,#1394,#1397,.T.);
#1184=EDGE_CURVE('',#1396,#1392,#1398,.T.);
#1185=EDGE_CURVE('',#1399,#1400,#1401,.T.);
#1186=EDGE_CURVE('',#1400,#1402,#1403,.T.);
#1187=EDGE_CURVE('',#1402,#1394,#1404,.T.);
#1188=EDGE_CURVE('',#1391,#1405,#1406,.T.);
#1189=EDGE_CURVE('',#1405,#1407,#1408,.T.);
#1190=EDGE_CURVE('',#1407,#1409,#1410,.T.);
#1191=EDGE_CURVE('',#1409,#1411,#1412,.T.);
#1192=EDGE_CURVE('',#1411,#1413,#1414,.T.);
#1193=EDGE_CURVE('',#1413,#1415,#1416,.T.);
#1194=EDGE_CURVE('',#1415,#1417,#1418,.T.);
#1195=EDGE_CURVE('',#1417,#1419,#1420,.T.);
#1196=EDGE_CURVE('',#1419,#1399,#1421,.T.);
#1197=EDGE_CURVE('',#1422,#1423,#1424,.T.);
#1198=EDGE_CURVE('',#1425,#1422,#1426,.T.);
#1199=EDGE_CURVE('',#1427,#1425,#1428,.T.);
#1200=EDGE_CURVE('',#1423,#1427,#1429,.T.);
#1201=EDGE_CURVE('',#1430,#1431,#1432,.T.);
#1202=EDGE_CURVE('',#1433,#1430,#1434,.T.);
#1203=EDGE_CURVE('',#1433,#1435,#1436,.T.);
#1204=EDGE_CURVE('',#1437,#1435,#1438,.T.);
#1205=EDGE_CURVE('',#1437,#1439,#1440,.T.);
#1206=EDGE_CURVE('',#1431,#1439,#1441,.T.);
#1207=EDGE_CURVE('',#1442,#1443,#1444,.T.);
#1208=EDGE_CURVE('',#1445,#1442,#1446,.T.);
#1209=EDGE_CURVE('',#1445,#1447,#1448,.T.);
#1210=EDGE_CURVE('',#1449,#1447,#1450,.T.);
#1211=EDGE_CURVE('',#1449,#1451,#1452,.T.);
#1212=EDGE_CURVE('',#1443,#1451,#1453,.T.);
#1213=EDGE_CURVE('',#1454,#1455,#1456,.T.);
#1214=EDGE_CURVE('',#1457,#1454,#1458,.T.);
#1215=EDGE_CURVE('',#1459,#1457,#1460,.T.);
#1216=EDGE_CURVE('',#1455,#1459,#1461,.T.);
#1217=EDGE_CURVE('',#1459,#1462,#1463,.T.);
#1218=EDGE_CURVE('',#1464,#1462,#1465,.T.);
#1219=EDGE_CURVE('',#1455,#1464,#1466,.T.);
#1220=EDGE_CURVE('',#1467,#1464,#1468,.T.);
#1221=EDGE_CURVE('',#1454,#1467,#1469,.T.);
#1222=EDGE_CURVE('',#1470,#1467,#1471,.T.);
#1223=EDGE_CURVE('',#1457,#1470,#1472,.T.);
#1224=EDGE_CURVE('',#1462,#1470,#1473,.T.);
#1225=EDGE_CURVE('',#1474,#1475,#1476,.T.);
#1226=EDGE_CURVE('',#1477,#1474,#1478,.T.);
#1227=EDGE_CURVE('',#1479,#1477,#1480,.T.);
#1228=EDGE_CURVE('',#1475,#1479,#1481,.T.);
#1229=EDGE_CURVE('',#1482,#1483,#1484,.T.);
#1230=EDGE_CURVE('',#1483,#1485,#1486,.T.);
#1231=EDGE_CURVE('',#1485,#1487,#1488,.T.);
#1232=EDGE_CURVE('',#1487,#1482,#1489,.T.);
#1233=EDGE_CURVE('',#1490,#1491,#1492,.T.);
#1234=EDGE_CURVE('',#1493,#1490,#1494,.T.);
#1235=EDGE_CURVE('',#1495,#1493,#1496,.T.);
#1236=EDGE_CURVE('',#1491,#1495,#1497,.T.);
#1237=EDGE_CURVE('',#1498,#1499,#1500,.T.);
#1238=EDGE_CURVE('',#1499,#1501,#1502,.T.);
#1239=EDGE_CURVE('',#1501,#1503,#1504,.T.);
#1240=EDGE_CURVE('',#1503,#1505,#1506,.T.);
#1241=EDGE_CURVE('',#1505,#1507,#1508,.T.);
#1242=EDGE_CURVE('',#1507,#1498,#1509,.T.);
#1243=EDGE_CURVE('',#1510,#1511,#1512,.T.);
#1244=EDGE_CURVE('',#1513,#1510,#1514,.T.);
#1245=EDGE_CURVE('',#1515,#1513,#1516,.T.);
#1246=EDGE_CURVE('',#1511,#1515,#1517,.T.);
#1247=EDGE_CURVE('',#1518,#1519,#1520,.T.);
#1248=EDGE_CURVE('',#1519,#1521,#1522,.T.);
#1249=EDGE_CURVE('',#1521,#1523,#1524,.T.);
#1250=EDGE_CURVE('',#1523,#1525,#1526,.T.);
#1251=EDGE_CURVE('',#1525,#1527,#1528,.T.);
#1252=EDGE_CURVE('',#1527,#1518,#1529,.T.);
#1253=EDGE_CURVE('',#1530,#1531,#1532,.T.);
#1254=EDGE_CURVE('',#1533,#1530,#1534,.T.);
#1255=EDGE_CURVE('',#1535,#1533,#1536,.T.);
#1256=EDGE_CURVE('',#1531,#1535,#1537,.T.);
#1257=EDGE_CURVE('',#1427,#1482,#1538,.T.);
#1258=EDGE_CURVE('',#1423,#1487,#1539,.T.);
#1259=EDGE_CURVE('',#1422,#1485,#1540,.T.);
#1260=EDGE_CURVE('',#1425,#1483,#1541,.T.);
#1261=EDGE_CURVE('',#1435,#1507,#1542,.T.);
#1262=EDGE_CURVE('',#1433,#1498,#1543,.T.);
#1263=EDGE_CURVE('',#1430,#1499,#1544,.T.);
#1264=EDGE_CURVE('',#1431,#1501,#1545,.T.);
#1265=EDGE_CURVE('',#1439,#1503,#1546,.T.);
#1266=EDGE_CURVE('',#1437,#1505,#1547,.T.);
#1267=EDGE_CURVE('',#1451,#1527,#1548,.T.);
#1268=EDGE_CURVE('',#1449,#1518,#1549,.T.);
#1269=EDGE_CURVE('',#1447,#1519,#1550,.T.);
#1270=EDGE_CURVE('',#1445,#1521,#1551,.T.);
#1271=EDGE_CURVE('',#1442,#1523,#1552,.T.);
#1272=EDGE_CURVE('',#1443,#1525,#1553,.T.);
#1273=EDGE_CURVE('',#1479,#1554,#1555,.T.);
#1274=EDGE_CURVE('',#1556,#1554,#1557,.T.);
#1275=EDGE_CURVE('',#1475,#1556,#1558,.T.);
#1276=EDGE_CURVE('',#1559,#1556,#1560,.T.);
#1277=EDGE_CURVE('',#1474,#1559,#1561,.T.);
#1278=EDGE_CURVE('',#1562,#1559,#1563,.T.);
#1279=EDGE_CURVE('',#1477,#1562,#1564,.T.);
#1280=EDGE_CURVE('',#1554,#1562,#1565,.T.);
#1281=EDGE_CURVE('',#1566,#1567,#1568,.T.);
#1282=EDGE_CURVE('',#1567,#1569,#1570,.T.);
#1283=EDGE_CURVE('',#1569,#1571,#1572,.T.);
#1284=EDGE_CURVE('',#1571,#1566,#1573,.T.);
#1285=EDGE_CURVE('',#1574,#1575,#1576,.T.);
#1286=EDGE_CURVE('',#1575,#1577,#1578,.T.);
#1287=EDGE_CURVE('',#1577,#1579,#1580,.T.);
#1288=EDGE_CURVE('',#1579,#1574,#1581,.T.);
#1289=EDGE_CURVE('',#1582,#1583,#1584,.T.);
#1290=EDGE_CURVE('',#1583,#1585,#1586,.T.);
#1291=EDGE_CURVE('',#1585,#1587,#1588,.T.);
#1292=EDGE_CURVE('',#1587,#1582,#1589,.T.);
#1293=EDGE_CURVE('',#1515,#1566,#1590,.T.);
#1294=EDGE_CURVE('',#1511,#1571,#1591,.T.);
#1295=EDGE_CURVE('',#1510,#1569,#1592,.T.);
#1296=EDGE_CURVE('',#1513,#1567,#1593,.T.);
#1297=EDGE_CURVE('',#1535,#1574,#1594,.T.);
#1298=EDGE_CURVE('',#1531,#1579,#1595,.T.);
#1299=EDGE_CURVE('',#1530,#1577,#1596,.T.);
#1300=EDGE_CURVE('',#1533,#1575,#1597,.T.);
#1301=EDGE_CURVE('',#1495,#1582,#1598,.T.);
#1302=EDGE_CURVE('',#1491,#1587,#1599,.T.);
#1303=EDGE_CURVE('',#1490,#1585,#1600,.T.);
#1304=EDGE_CURVE('',#1493,#1583,#1601,.T.);
#1305=EDGE_CURVE('',#1399,#1602,#1603,.T.);
#1306=EDGE_CURVE('',#1419,#1604,#1605,.T.);
#1307=EDGE_CURVE('',#1602,#1604,#1606,.T.);
#1308=EDGE_CURVE('',#1607,#1604,#1608,.T.);
#1309=EDGE_CURVE('',#1607,#1609,#1610,.T.);
#1310=EDGE_CURVE('',#1611,#1609,#1612,.T.);
#1311=EDGE_CURVE('',#1611,#1613,#1614,.T.);
#1312=EDGE_CURVE('',#1615,#1613,#1616,.T.);
#1313=EDGE_CURVE('',#1392,#1615,#1617,.T.);
#1314=EDGE_CURVE('',#1618,#1396,#1619,.T.);
#1315=EDGE_CURVE('',#1618,#1620,#1621,.T.);
#1316=EDGE_CURVE('',#1602,#1620,#1622,.T.);
#1317=EDGE_CURVE('',#1623,#1624,#1625,.T.);
#1318=EDGE_CURVE('',#1624,#1623,#1626,.T.);
#1319=EDGE_CURVE('',#1627,#1628,#1629,.T.);
#1320=EDGE_CURVE('',#1630,#1627,#1631,.T.);
#1321=EDGE_CURVE('',#1632,#1630,#1633,.T.);
#1322=EDGE_CURVE('',#1628,#1632,#1634,.T.);
#1323=EDGE_CURVE('',#1635,#1636,#1637,.T.);
#1324=EDGE_CURVE('',#1638,#1635,#1639,.T.);
#1325=EDGE_CURVE('',#1640,#1638,#1641,.T.);
#1326=EDGE_CURVE('',#1636,#1640,#1642,.T.);
#1327=EDGE_CURVE('',#1643,#1644,#1645,.T.);
#1328=EDGE_CURVE('',#1646,#1643,#1647,.T.);
#1329=EDGE_CURVE('',#1648,#1646,#1649,.T.);
#1330=EDGE_CURVE('',#1644,#1648,#1650,.T.);
#1331=EDGE_CURVE('',#1651,#1652,#1653,.T.);
#1332=EDGE_CURVE('',#1654,#1651,#1655,.T.);
#1333=EDGE_CURVE('',#1656,#1654,#1657,.T.);
#1334=EDGE_CURVE('',#1652,#1656,#1658,.T.);
#1335=EDGE_CURVE('',#1624,#1659,#1660,.T.);
#1336=EDGE_CURVE('',#1623,#1661,#1662,.T.);
#1337=EDGE_CURVE('',#1659,#1661,#1663,.T.);
#1338=EDGE_CURVE('',#1664,#1661,#1665,.T.);
#1339=EDGE_CURVE('',#1664,#1659,#1666,.T.);
#1340=EDGE_CURVE('',#1661,#1659,#1667,.T.);
#1341=EDGE_CURVE('',#1400,#1620,#1668,.T.);
#1342=EDGE_CURVE('',#1402,#1618,#1669,.T.);
#1343=EDGE_CURVE('',#1615,#1405,#1670,.T.);
#1344=EDGE_CURVE('',#1407,#1613,#1671,.T.);
#1345=EDGE_CURVE('',#1409,#1611,#1672,.T.);
#1346=EDGE_CURVE('',#1413,#1673,#1674,.T.);
#1347=EDGE_CURVE('',#1675,#1673,#1676,.T.);
#1348=EDGE_CURVE('',#1411,#1675,#1677,.T.);
#1349=EDGE_CURVE('',#1415,#1609,#1678,.T.);
#1350=EDGE_CURVE('',#1417,#1607,#1679,.T.);
#1351=EDGE_CURVE('',#1680,#1675,#1681,.T.);
#1352=EDGE_CURVE('',#1682,#1680,#1683,.T.);
#1353=EDGE_CURVE('',#1411,#1682,#1684,.T.);
#1354=EDGE_CURVE('',#1682,#1685,#1686,.T.);
#1355=EDGE_CURVE('',#1413,#1685,#1687,.T.);
#1356=EDGE_CURVE('',#1685,#1688,#1689,.T.);
#1357=EDGE_CURVE('',#1688,#1673,#1690,.T.);
#1358=EDGE_CURVE('',#1680,#1688,#1691,.T.);
#1359=EDGE_CURVE('',#1632,#1692,#1693,.T.);
#1360=EDGE_CURVE('',#1694,#1692,#1695,.T.);
#1361=EDGE_CURVE('',#1628,#1694,#1696,.T.);
#1362=EDGE_CURVE('',#1697,#1694,#1698,.T.);
#1363=EDGE_CURVE('',#1627,#1697,#1699,.T.);
#1364=EDGE_CURVE('',#1700,#1697,#1701,.T.);
#1365=EDGE_CURVE('',#1630,#1700,#1702,.T.);
#1366=EDGE_CURVE('',#1692,#1700,#1703,.T.);
#1367=EDGE_CURVE('',#1704,#1705,#1706,.T.);
#1368=EDGE_CURVE('',#1705,#1707,#1708,.T.);
#1369=EDGE_CURVE('',#1707,#1709,#1710,.T.);
#1370=EDGE_CURVE('',#1709,#1704,#1711,.T.);
#1371=EDGE_CURVE('',#1712,#1713,#1714,.T.);
#1372=EDGE_CURVE('',#1713,#1715,#1716,.T.);
#1373=EDGE_CURVE('',#1715,#1717,#1718,.T.);
#1374=EDGE_CURVE('',#1717,#1712,#1719,.T.);
#1375=EDGE_CURVE('',#1720,#1721,#1722,.T.);
#1376=EDGE_CURVE('',#1721,#1723,#1724,.T.);
#1377=EDGE_CURVE('',#1723,#1725,#1726,.T.);
#1378=EDGE_CURVE('',#1725,#1720,#1727,.T.);
#1379=EDGE_CURVE('',#1640,#1704,#1728,.T.);
#1380=EDGE_CURVE('',#1636,#1709,#1729,.T.);
#1381=EDGE_CURVE('',#1635,#1707,#1730,.T.);
#1382=EDGE_CURVE('',#1638,#1705,#1731,.T.);
#1383=EDGE_CURVE('',#1648,#1712,#1732,.T.);
#1384=EDGE_CURVE('',#1644,#1717,#1733,.T.);
#1385=EDGE_CURVE('',#1643,#1715,#1734,.T.);
#1386=EDGE_CURVE('',#1646,#1713,#1735,.T.);
#1387=EDGE_CURVE('',#1656,#1720,#1736,.T.);
#1388=EDGE_CURVE('',#1652,#1725,#1737,.T.);
#1389=EDGE_CURVE('',#1651,#1723,#1738,.T.);
#1390=EDGE_CURVE('',#1654,#1721,#1739,.T.);
#1391=VERTEX_POINT('',#1740);
#1392=VERTEX_POINT('',#1741);
#1393=LINE('',#1742,#1743);
#1394=VERTEX_POINT('',#1744);
#1395=CIRCLE('',#1745,0.5);
#1396=VERTEX_POINT('',#1746);
#1397=LINE('',#1747,#1748);
#1398=CIRCLE('',#1749,0.5);
#1399=VERTEX_POINT('',#1750);
#1400=VERTEX_POINT('',#1751);
#1401=LINE('',#1752,#1753);
#1402=VERTEX_POINT('',#1754);
#1403=CIRCLE('',#1755,0.5);
#1404=LINE('',#1756,#1757);
#1405=VERTEX_POINT('',#1758);
#1406=CIRCLE('',#1759,0.5);
#1407=VERTEX_POINT('',#1760);
#1408=LINE('',#1761,#1762);
#1409=VERTEX_POINT('',#1763);
#1410=CIRCLE('',#1764,0.5);
#1411=VERTEX_POINT('',#1765);
#1412=LINE('',#1766,#1767);
#1413=VERTEX_POINT('',#1768);
#1414=LINE('',#1769,#1770);
#1415=VERTEX_POINT('',#1771);
#1416=LINE('',#1772,#1773);
#1417=VERTEX_POINT('',#1774);
#1418=CIRCLE('',#1775,0.5);
#1419=VERTEX_POINT('',#1776);
#1420=LINE('',#1777,#1778);
#1421=CIRCLE('',#1779,0.5);
#1422=VERTEX_POINT('',#1780);
#1423=VERTEX_POINT('',#1781);
#1424=LINE('',#1782,#1783);
#1425=VERTEX_POINT('',#1784);
#1426=LINE('',#1785,#1786);
#1427=VERTEX_POINT('',#1787);
#1428=LINE('',#1788,#1789);
#1429=LINE('',#1790,#1791);
#1430=VERTEX_POINT('',#1792);
#1431=VERTEX_POINT('',#1793);
#1432=LINE('',#1794,#1795);
#1433=VERTEX_POINT('',#1796);
#1434=LINE('',#1797,#1798);
#1435=VERTEX_POINT('',#1799);
#1436=LINE('',#1800,#1801);
#1437=VERTEX_POINT('',#1802);
#1438=LINE('',#1803,#1804);
#1439=VERTEX_POINT('',#1805);
#1440=LINE('',#1806,#1807);
#1441=LINE('',#1808,#1809);
#1442=VERTEX_POINT('',#1810);
#1443=VERTEX_POINT('',#1811);
#1444=LINE('',#1812,#1813);
#1445=VERTEX_POINT('',#1814);
#1446=LINE('',#1815,#1816);
#1447=VERTEX_POINT('',#1817);
#1448=LINE('',#1818,#1819);
#1449=VERTEX_POINT('',#1820);
#1450=LINE('',#1821,#1822);
#1451=VERTEX_POINT('',#1823);
#1452=LINE('',#1824,#1825);
#1453=LINE('',#1826,#1827);
#1454=VERTEX_POINT('',#1828);
#1455=VERTEX_POINT('',#1829);
#1456=LINE('',#1830,#1831);
#1457=VERTEX_POINT('',#1832);
#1458=LINE('',#1833,#1834);
#1459=VERTEX_POINT('',#1835);
#1460=LINE('',#1836,#1837);
#1461=LINE('',#1838,#1839);
#1462=VERTEX_POINT('',#1840);
#1463=LINE('',#1841,#1842);
#1464=VERTEX_POINT('',#1843);
#1465=LINE('',#1844,#1845);
#1466=LINE('',#1846,#1847);
#1467=VERTEX_POINT('',#1848);
#1468=LINE('',#1849,#1850);
#1469=LINE('',#1851,#1852);
#1470=VERTEX_POINT('',#1853);
#1471=LINE('',#1854,#1855);
#1472=LINE('',#1856,#1857);
#1473=LINE('',#1858,#1859);
#1474=VERTEX_POINT('',#1860);
#1475=VERTEX_POINT('',#1861);
#1476=LINE('',#1862,#1863);
#1477=VERTEX_POINT('',#1864);
#1478=LINE('',#1865,#1866);
#1479=VERTEX_POINT('',#1867);
#1480=LINE('',#1868,#1869);
#1481=LINE('',#1870,#1871);
#1482=VERTEX_POINT('',#1872);
#1483=VERTEX_POINT('',#1873);
#1484=LINE('',#1874,#1875);
#1485=VERTEX_POINT('',#1876);
#1486=LINE('',#1877,#1878);
#1487=VERTEX_POINT('',#1879);
#1488=LINE('',#1880,#1881);
#1489=LINE('',#1882,#1883);
#1490=VERTEX_POINT('',#1884);
#1491=VERTEX_POINT('',#1885);
#1492=LINE('',#1886,#1887);
#1493=VERTEX_POINT('',#1888);
#1494=LINE('',#1889,#1890);
#1495=VERTEX_POINT('',#1891);
#1496=LINE('',#1892,#1893);
#1497=LINE('',#1894,#1895);
#1498=VERTEX_POINT('',#1896);
#1499=VERTEX_POINT('',#1897);
#1500=LINE('',#1898,#1899);
#1501=VERTEX_POINT('',#1900);
#1502=LINE('',#1901,#1902);
#1503=VERTEX_POINT('',#1903);
#1504=LINE('',#1904,#1905);
#1505=VERTEX_POINT('',#1906);
#1506=LINE('',#1907,#1908);
#1507=VERTEX_POINT('',#1909);
#1508=LINE('',#1910,#1911);
#1509=LINE('',#1912,#1913);
#1510=VERTEX_POINT('',#1914);
#1511=VERTEX_POINT('',#1915);
#1512=LINE('',#1916,#1917);
#1513=VERTEX_POINT('',#1918);
#1514=LINE('',#1919,#1920);
#1515=VERTEX_POINT('',#1921);
#1516=LINE('',#1922,#1923);
#1517=LINE('',#1924,#1925);
#1518=VERTEX_POINT('',#1926);
#1519=VERTEX_POINT('',#1927);
#1520=LINE('',#1928,#1929);
#1521=VERTEX_POINT('',#1930);
#1522=LINE('',#1931,#1932);
#1523=VERTEX_POINT('',#1933);
#1524=LINE('',#1934,#1935);
#1525=VERTEX_POINT('',#1936);
#1526=LINE('',#1937,#1938);
#1527=VERTEX_POINT('',#1939);
#1528=LINE('',#1940,#1941);
#1529=LINE('',#1942,#1943);
#1530=VERTEX_POINT('',#1944);
#1531=VERTEX_POINT('',#1945);
#1532=LINE('',#1946,#1947);
#1533=VERTEX_POINT('',#1948);
#1534=LINE('',#1949,#1950);
#1535=VERTEX_POINT('',#1951);
#1536=LINE('',#1952,#1953);
#1537=LINE('',#1954,#1955);
#1538=LINE('',#1956,#1957);
#1539=LINE('',#1958,#1959);
#1540=LINE('',#1960,#1961);
#1541=LINE('',#1962,#1963);
#1542=LINE('',#1964,#1965);
#1543=LINE('',#1966,#1967);
#1544=LINE('',#1968,#1969);
#1545=LINE('',#1970,#1971);
#1546=LINE('',#1972,#1973);
#1547=LINE('',#1974,#1975);
#1548=LINE('',#1976,#1977);
#1549=LINE('',#1978,#1979);
#1550=LINE('',#1980,#1981);
#1551=LINE('',#1982,#1983);
#1552=LINE('',#1984,#1985);
#1553=LINE('',#1986,#1987);
#1554=VERTEX_POINT('',#1988);
#1555=LINE('',#1989,#1990);
#1556=VERTEX_POINT('',#1991);
#1557=LINE('',#1992,#1993);
#1558=LINE('',#1994,#1995);
#1559=VERTEX_POINT('',#1996);
#1560=LINE('',#1997,#1998);
#1561=LINE('',#1999,#2000);
#1562=VERTEX_POINT('',#2001);
#1563=LINE('',#2002,#2003);
#1564=LINE('',#2004,#2005);
#1565=LINE('',#2006,#2007);
#1566=VERTEX_POINT('',#2008);
#1567=VERTEX_POINT('',#2009);
#1568=LINE('',#2010,#2011);
#1569=VERTEX_POINT('',#2012);
#1570=LINE('',#2013,#2014);
#1571=VERTEX_POINT('',#2015);
#1572=LINE('',#2016,#2017);
#1573=LINE('',#2018,#2019);
#1574=VERTEX_POINT('',#2020);
#1575=VERTEX_POINT('',#2021);
#1576=LINE('',#2022,#2023);
#1577=VERTEX_POINT('',#2024);
#1578=LINE('',#2025,#2026);
#1579=VERTEX_POINT('',#2027);
#1580=LINE('',#2028,#2029);
#1581=LINE('',#2030,#2031);
#1582=VERTEX_POINT('',#2032);
#1583=VERTEX_POINT('',#2033);
#1584=LINE('',#2034,#2035);
#1585=VERTEX_POINT('',#2036);
#1586=LINE('',#2037,#2038);
#1587=VERTEX_POINT('',#2039);
#1588=LINE('',#2040,#2041);
#1589=LINE('',#2042,#2043);
#1590=LINE('',#2044,#2045);
#1591=LINE('',#2046,#2047);
#1592=LINE('',#2048,#2049);
#1593=LINE('',#2050,#2051);
#1594=LINE('',#2052,#2053);
#1595=LINE('',#2054,#2055);
#1596=LINE('',#2056,#2057);
#1597=LINE('',#2058,#2059);
#1598=LINE('',#2060,#2061);
#1599=LINE('',#2062,#2063);
#1600=LINE('',#2064,#2065);
#1601=LINE('',#2066,#2067);
#1602=VERTEX_POINT('',#2068);
#1603=LINE('',#2069,#2070);
#1604=VERTEX_POINT('',#2071);
#1605=LINE('',#2072,#2073);
#1606=CIRCLE('',#2074,0.5);
#1607=VERTEX_POINT('',#2075);
#1608=LINE('',#2076,#2077);
#1609=VERTEX_POINT('',#2078);
#1610=CIRCLE('',#2079,0.5);
#1611=VERTEX_POINT('',#2080);
#1612=LINE('',#2081,#2082);
#1613=VERTEX_POINT('',#2083);
#1614=CIRCLE('',#2084,0.5);
#1615=VERTEX_POINT('',#2085);
#1616=LINE('',#2086,#2087);
#1617=CIRCLE('',#2088,0.5);
#1618=VERTEX_POINT('',#2089);
#1619=LINE('',#2090,#2091);
#1620=VERTEX_POINT('',#2092);
#1621=CIRCLE('',#2093,0.5);
#1622=LINE('',#2094,#2095);
#1623=VERTEX_POINT('',#2096);
#1624=VERTEX_POINT('',#2097);
#1625=CIRCLE('',#2098,0.25);
#1626=CIRCLE('',#2099,0.25);
#1627=VERTEX_POINT('',#2100);
#1628=VERTEX_POINT('',#2101);
#1629=LINE('',#2102,#2103);
#1630=VERTEX_POINT('',#2104);
#1631=LINE('',#2105,#2106);
#1632=VERTEX_POINT('',#2107);
#1633=LINE('',#2108,#2109);
#1634=LINE('',#2110,#2111);
#1635=VERTEX_POINT('',#2112);
#1636=VERTEX_POINT('',#2113);
#1637=LINE('',#2114,#2115);
#1638=VERTEX_POINT('',#2116);
#1639=LINE('',#2117,#2118);
#1640=VERTEX_POINT('',#2119);
#1641=LINE('',#2120,#2121);
#1642=LINE('',#2122,#2123);
#1643=VERTEX_POINT('',#2124);
#1644=VERTEX_POINT('',#2125);
#1645=LINE('',#2126,#2127);
#1646=VERTEX_POINT('',#2128);
#1647=LINE('',#2129,#2130);
#1648=VERTEX_POINT('',#2131);
#1649=LINE('',#2132,#2133);
#1650=LINE('',#2134,#2135);
#1651=VERTEX_POINT('',#2136);
#1652=VERTEX_POINT('',#2137);
#1653=LINE('',#2138,#2139);
#1654=VERTEX_POINT('',#2140);
#1655=LINE('',#2141,#2142);
#1656=VERTEX_POINT('',#2143);
#1657=LINE('',#2144,#2145);
#1658=LINE('',#2146,#2147);
#1659=VERTEX_POINT('',#2148);
#1660=LINE('',#2149,#2150);
#1661=VERTEX_POINT('',#2151);
#1662=LINE('',#2152,#2153);
#1663=CIRCLE('',#2154,0.25);
#1664=VERTEX_POINT('',#2155);
#1665=CIRCLE('',#2156,0.25);
#1666=CIRCLE('',#2157,0.25);
#1667=CIRCLE('',#2158,0.25);
#1668=LINE('',#2159,#2160);
#1669=LINE('',#2161,#2162);
#1670=LINE('',#2163,#2164);
#1671=LINE('',#2165,#2166);
#1672=LINE('',#2167,#2168);
#1673=VERTEX_POINT('',#2169);
#1674=LINE('',#2170,#2171);
#1675=VERTEX_POINT('',#2172);
#1676=LINE('',#2173,#2174);
#1677=LINE('',#2175,#2176);
#1678=LINE('',#2177,#2178);
#1679=LINE('',#2179,#2180);
#1680=VERTEX_POINT('',#2181);
#1681=LINE('',#2182,#2183);
#1682=VERTEX_POINT('',#2184);
#1683=LINE('',#2185,#2186);
#1684=LINE('',#2187,#2188);
#1685=VERTEX_POINT('',#2189);
#1686=LINE('',#2190,#2191);
#1687=LINE('',#2192,#2193);
#1688=VERTEX_POINT('',#2194);
#1689=LINE('',#2195,#2196);
#1690=LINE('',#2197,#2198);
#1691=LINE('',#2199,#2200);
#1692=VERTEX_POINT('',#2201);
#1693=LINE('',#2202,#2203);
#1694=VERTEX_POINT('',#2204);
#1695=LINE('',#2205,#2206);
#1696=LINE('',#2207,#2208);
#1697=VERTEX_POINT('',#2209);
#1698=LINE('',#2210,#2211);
#1699=LINE('',#2212,#2213);
#1700=VERTEX_POINT('',#2214);
#1701=LINE('',#2215,#2216);
#1702=LINE('',#2217,#2218);
#1703=LINE('',#2219,#2220);
#1704=VERTEX_POINT('',#2221);
#1705=VERTEX_POINT('',#2222);
#1706=LINE('',#2223,#2224);
#1707=VERTEX_POINT('',#2225);
#1708=LINE('',#2226,#2227);
#1709=VERTEX_POINT('',#2228);
#1710=LINE('',#2229,#2230);
#1711=LINE('',#2231,#2232);
#1712=VERTEX_POINT('',#2233);
#1713=VERTEX_POINT('',#2234);
#1714=LINE('',#2235,#2236);
#1715=VERTEX_POINT('',#2237);
#1716=LINE('',#2238,#2239);
#1717=VERTEX_POINT('',#2240);
#1718=LINE('',#2241,#2242);
#1719=LINE('',#2243,#2244);
#1720=VERTEX_POINT('',#2245);
#1721=VERTEX_POINT('',#2246);
#1722=LINE('',#2247,#2248);
#1723=VERTEX_POINT('',#2249);
#1724=LINE('',#2250,#2251);
#1725=VERTEX_POINT('',#2252);
#1726=LINE('',#2253,#2254);
#1727=LINE('',#2255,#2256);
#1728=LINE('',#2257,#2258);
#1729=LINE('',#2259,#2260);
#1730=LINE('',#2261,#2262);
#1731=LINE('',#2263,#2264);
#1732=LINE('',#2265,#2266);
#1733=LINE('',#2267,#2268);
#1734=LINE('',#2269,#2270);
#1735=LINE('',#2271,#2272);
#1736=LINE('',#2273,#2274);
#1737=LINE('',#2275,#2276);
#1738=LINE('',#2277,#2278);
#1739=LINE('',#2279,#2280);
#1740=CARTESIAN_POINT('',(-5.1,2.576969600708,0.0));
#1741=CARTESIAN_POINT('',(-5.1,2.576969600708,-12.8));
#1742=CARTESIAN_POINT('',(-5.1,2.576969600708,-6.4));
#1743=VECTOR('',#2281,1.0);
#1744=CARTESIAN_POINT('',(-4.75,3.053939201417,0.0));
#1745=AXIS2_PLACEMENT_3D('',#2282,#2283,#2284);
#1746=CARTESIAN_POINT('',(-4.75,3.053939201417,-12.8));
#1747=CARTESIAN_POINT('',(-4.75,3.053939201417,-12.8));
#1748=VECTOR('',#2285,12.8);
#1749=AXIS2_PLACEMENT_3D('',#2286,#2287,#2288);
#1750=CARTESIAN_POINT('',(4.25,4.8,0.0));
#1751=CARTESIAN_POINT('',(-4.25,4.8,0.0));
#1752=CARTESIAN_POINT('',(4.25,4.8,0.0));
#1753=VECTOR('',#2289,8.5);
#1754=CARTESIAN_POINT('',(-4.75,4.3,0.0));
#1755=AXIS2_PLACEMENT_3D('',#2290,#2291,#2292);
#1756=CARTESIAN_POINT('',(-4.75,4.3,0.0));
#1757=VECTOR('',#2293,1.246060798583);
#1758=CARTESIAN_POINT('',(-4.75,2.1,0.0));
#1759=AXIS2_PLACEMENT_3D('',#2294,#2295,#2296);
#1760=CARTESIAN_POINT('',(-4.75,-4.3,0.0));
#1761=CARTESIAN_POINT('',(-4.75,2.1,0.0));
#1762=VECTOR('',#2297,6.4);
#1763=CARTESIAN_POINT('',(-4.25,-4.8,0.0));
#1764=AXIS2_PLACEMENT_3D('',#2298,#2299,#2300);
#1765=CARTESIAN_POINT('',(-1.7,-4.8,0.0));
#1766=CARTESIAN_POINT('',(-4.25,-4.8,0.0));
#1767=VECTOR('',#2301,2.55);
#1768=CARTESIAN_POINT('',(1.7,-4.8,0.0));
#1769=CARTESIAN_POINT('',(-1.7,-4.8,0.0));
#1770=VECTOR('',#2302,3.4);
#1771=CARTESIAN_POINT('',(4.25,-4.8,0.0));
#1772=CARTESIAN_POINT('',(1.7,-4.8,0.0));
#1773=VECTOR('',#2303,2.55);
#1774=CARTESIAN_POINT('',(4.75,-4.3,0.0));
#1775=AXIS2_PLACEMENT_3D('',#2304,#2305,#2306);
#1776=CARTESIAN_POINT('',(4.75,4.3,0.0));
#1777=CARTESIAN_POINT('',(4.75,-4.3,0.0));
#1778=VECTOR('',#2307,8.6);
#1779=AXIS2_PLACEMENT_3D('',#2308,#2309,#2310);
#1780=CARTESIAN_POINT('',(0.225,-3.975,0.0));
#1781=CARTESIAN_POINT('',(3.975,-3.975,0.0));
#1782=CARTESIAN_POINT('',(0.225,-3.975,0.0));
#1783=VECTOR('',#2311,3.75);
#1784=CARTESIAN_POINT('',(0.225,-0.225,0.0));
#1785=CARTESIAN_POINT('',(0.225,-0.225,0.0));
#1786=VECTOR('',#2312,3.75);
#1787=CARTESIAN_POINT('',(3.975,-0.225,0.0));
#1788=CARTESIAN_POINT('',(3.975,-0.225,0.0));
#1789=VECTOR('',#2313,3.75);
#1790=CARTESIAN_POINT('',(3.975,-3.975,0.0));
#1791=VECTOR('',#2314,3.75);
#1792=CARTESIAN_POINT('',(0.225,0.225,0.0));
#1793=CARTESIAN_POINT('',(3.975,0.225,0.0));
#1794=CARTESIAN_POINT('',(0.225,0.225,0.0));
#1795=VECTOR('',#2315,3.75);
#1796=CARTESIAN_POINT('',(0.225,2.975,0.0));
#1797=CARTESIAN_POINT('',(0.225,2.975,0.0));
#1798=VECTOR('',#2316,2.75);
#1799=CARTESIAN_POINT('',(1.225,3.975,0.0));
#1800=CARTESIAN_POINT('',(0.225,2.975,0.0));
#1801=VECTOR('',#2317,1.414213562373);
#1802=CARTESIAN_POINT('',(2.975,3.975,0.0));
#1803=CARTESIAN_POINT('',(2.975,3.975,0.0));
#1804=VECTOR('',#2318,1.75);
#1805=CARTESIAN_POINT('',(3.975,2.975,0.0));
#1806=CARTESIAN_POINT('',(2.975,3.975,0.0));
#1807=VECTOR('',#2319,1.414213562373);
#1808=CARTESIAN_POINT('',(3.975,0.225,0.0));
#1809=VECTOR('',#2320,2.75);
#1810=CARTESIAN_POINT('',(-3.975,-3.975,0.0));
#1811=CARTESIAN_POINT('',(-0.225,-3.975,0.0));
#1812=CARTESIAN_POINT('',(-3.975,-3.975,0.0));
#1813=VECTOR('',#2321,3.75);
#1814=CARTESIAN_POINT('',(-3.975,-1.225,0.0));
#1815=CARTESIAN_POINT('',(-3.975,-1.225,0.0));
#1816=VECTOR('',#2322,2.75);
#1817=CARTESIAN_POINT('',(-2.975,-0.225,0.0));
#1818=CARTESIAN_POINT('',(-3.975,-1.225,0.0));
#1819=VECTOR('',#2323,1.414213562373);
#1820=CARTESIAN_POINT('',(-1.225,-0.225,0.0));
#1821=CARTESIAN_POINT('',(-1.225,-0.225,0.0));
#1822=VECTOR('',#2324,1.75);
#1823=CARTESIAN_POINT('',(-0.225,-1.225,0.0));
#1824=CARTESIAN_POINT('',(-1.225,-0.225,0.0));
#1825=VECTOR('',#2325,1.414213562373);
#1826=CARTESIAN_POINT('',(-0.225,-3.975,0.0));
#1827=VECTOR('',#2326,2.75);
#1828=CARTESIAN_POINT('',(-0.225,3.975,0.0));
#1829=CARTESIAN_POINT('',(-3.975,3.975,0.0));
#1830=CARTESIAN_POINT('',(-0.225,3.975,0.0));
#1831=VECTOR('',#2327,3.75);
#1832=CARTESIAN_POINT('',(-0.225,0.225,0.0));
#1833=CARTESIAN_POINT('',(-0.225,0.225,0.0));
#1834=VECTOR('',#2328,3.75);
#1835=CARTESIAN_POINT('',(-3.975,0.225,0.0));
#1836=CARTESIAN_POINT('',(-3.975,0.225,0.0));
#1837=VECTOR('',#2329,3.75);
#1838=CARTESIAN_POINT('',(-3.975,3.975,0.0));
#1839=VECTOR('',#2330,3.75);
#1840=CARTESIAN_POINT('',(-3.975,0.225,-9.05));
#1841=CARTESIAN_POINT('',(-3.975,0.225,0.0));
#1842=VECTOR('',#2331,9.05);
#1843=CARTESIAN_POINT('',(-3.975,3.975,-9.05));
#1844=CARTESIAN_POINT('',(-3.975,3.975,-9.05));
#1845=VECTOR('',#2332,3.75);
#1846=CARTESIAN_POINT('',(-3.975,3.975,0.0));
#1847=VECTOR('',#2333,9.05);
#1848=CARTESIAN_POINT('',(-0.225,3.975,-9.05));
#1849=CARTESIAN_POINT('',(-0.225,3.975,-9.05));
#1850=VECTOR('',#2334,3.75);
#1851=CARTESIAN_POINT('',(-0.225,3.975,0.0));
#1852=VECTOR('',#2335,9.05);
#1853=CARTESIAN_POINT('',(-0.225,0.225,-9.05));
#1854=CARTESIAN_POINT('',(-0.225,0.225,-9.05));
#1855=VECTOR('',#2336,3.75);
#1856=CARTESIAN_POINT('',(-0.225,0.225,0.0));
#1857=VECTOR('',#2337,9.05);
#1858=CARTESIAN_POINT('',(-3.975,0.225,-9.05));
#1859=VECTOR('',#2338,3.75);
#1860=CARTESIAN_POINT('',(-1.53,2.67,-9.05));
#1861=CARTESIAN_POINT('',(-2.67,2.67,-9.05));
#1862=CARTESIAN_POINT('',(-1.53,2.67,-9.05));
#1863=VECTOR('',#2339,1.14);
#1864=CARTESIAN_POINT('',(-1.53,1.53,-9.05));
#1865=CARTESIAN_POINT('',(-1.53,1.53,-9.05));
#1866=VECTOR('',#2340,1.14);
#1867=CARTESIAN_POINT('',(-2.67,1.53,-9.05));
#1868=CARTESIAN_POINT('',(-2.67,1.53,-9.05));
#1869=VECTOR('',#2341,1.14);
#1870=CARTESIAN_POINT('',(-2.67,2.67,-9.05));
#1871=VECTOR('',#2342,1.14);
#1872=CARTESIAN_POINT('',(3.975,-0.225,-9.05));
#1873=CARTESIAN_POINT('',(0.225,-0.225,-9.05));
#1874=CARTESIAN_POINT('',(3.975,-0.225,-9.05));
#1875=VECTOR('',#2343,3.75);
#1876=CARTESIAN_POINT('',(0.225,-3.975,-9.05));
#1877=CARTESIAN_POINT('',(0.225,-0.225,-9.05));
#1878=VECTOR('',#2344,3.75);
#1879=CARTESIAN_POINT('',(3.975,-3.975,-9.05));
#1880=CARTESIAN_POINT('',(0.225,-3.975,-9.05));
#1881=VECTOR('',#2345,3.75);
#1882=CARTESIAN_POINT('',(3.975,-3.975,-9.05));
#1883=VECTOR('',#2346,3.75);
#1884=CARTESIAN_POINT('',(1.53,-2.67,-9.05));
#1885=CARTESIAN_POINT('',(2.67,-2.67,-9.05));
#1886=CARTESIAN_POINT('',(1.53,-2.67,-9.05));
#1887=VECTOR('',#2347,1.14);
#1888=CARTESIAN_POINT('',(1.53,-1.53,-9.05));
#1889=CARTESIAN_POINT('',(1.53,-1.53,-9.05));
#1890=VECTOR('',#2348,1.14);
#1891=CARTESIAN_POINT('',(2.67,-1.53,-9.05));
#1892=CARTESIAN_POINT('',(2.67,-1.53,-9.05));
#1893=VECTOR('',#2349,1.14);
#1894=CARTESIAN_POINT('',(2.67,-2.67,-9.05));
#1895=VECTOR('',#2350,1.14);
#1896=CARTESIAN_POINT('',(0.225,2.975,-9.05));
#1897=CARTESIAN_POINT('',(0.225,0.225,-9.05));
#1898=CARTESIAN_POINT('',(0.225,2.975,-9.05));
#1899=VECTOR('',#2351,2.75);
#1900=CARTESIAN_POINT('',(3.975,0.225,-9.05));
#1901=CARTESIAN_POINT('',(0.225,0.225,-9.05));
#1902=VECTOR('',#2352,3.75);
#1903=CARTESIAN_POINT('',(3.975,2.975,-9.05));
#1904=CARTESIAN_POINT('',(3.975,0.225,-9.05));
#1905=VECTOR('',#2353,2.75);
#1906=CARTESIAN_POINT('',(2.975,3.975,-9.05));
#1907=CARTESIAN_POINT('',(3.975,2.975,-9.05));
#1908=VECTOR('',#2354,1.414213562373);
#1909=CARTESIAN_POINT('',(1.225,3.975,-9.05));
#1910=CARTESIAN_POINT('',(2.975,3.975,-9.05));
#1911=VECTOR('',#2355,1.75);
#1912=CARTESIAN_POINT('',(1.225,3.975,-9.05));
#1913=VECTOR('',#2356,1.414213562373);
#1914=CARTESIAN_POINT('',(2.67,1.53,-9.05));
#1915=CARTESIAN_POINT('',(2.67,2.67,-9.05));
#1916=CARTESIAN_POINT('',(2.67,1.53,-9.05));
#1917=VECTOR('',#2357,1.14);
#1918=CARTESIAN_POINT('',(1.53,1.53,-9.05));
#1919=CARTESIAN_POINT('',(1.53,1.53,-9.05));
#1920=VECTOR('',#2358,1.14);
#1921=CARTESIAN_POINT('',(1.53,2.67,-9.05));
#1922=CARTESIAN_POINT('',(1.53,2.67,-9.05));
#1923=VECTOR('',#2359,1.14);
#1924=CARTESIAN_POINT('',(2.67,2.67,-9.05));
#1925=VECTOR('',#2360,1.14);
#1926=CARTESIAN_POINT('',(-1.225,-0.225,-9.05));
#1927=CARTESIAN_POINT('',(-2.975,-0.225,-9.05));
#1928=CARTESIAN_POINT('',(-1.225,-0.225,-9.05));
#1929=VECTOR('',#2361,1.75);
#1930=CARTESIAN_POINT('',(-3.975,-1.225,-9.05));
#1931=CARTESIAN_POINT('',(-2.975,-0.225,-9.05));
#1932=VECTOR('',#2362,1.414213562373);
#1933=CARTESIAN_POINT('',(-3.975,-3.975,-9.05));
#1934=CARTESIAN_POINT('',(-3.975,-1.225,-9.05));
#1935=VECTOR('',#2363,2.75);
#1936=CARTESIAN_POINT('',(-0.225,-3.975,-9.05));
#1937=CARTESIAN_POINT('',(-3.975,-3.975,-9.05));
#1938=VECTOR('',#2364,3.75);
#1939=CARTESIAN_POINT('',(-0.225,-1.225,-9.05));
#1940=CARTESIAN_POINT('',(-0.225,-3.975,-9.05));
#1941=VECTOR('',#2365,2.75);
#1942=CARTESIAN_POINT('',(-0.225,-1.225,-9.05));
#1943=VECTOR('',#2366,1.414213562373);
#1944=CARTESIAN_POINT('',(-2.67,-1.53,-9.05));
#1945=CARTESIAN_POINT('',(-2.67,-2.67,-9.05));
#1946=CARTESIAN_POINT('',(-2.67,-1.53,-9.05));
#1947=VECTOR('',#2367,1.14);
#1948=CARTESIAN_POINT('',(-1.53,-1.53,-9.05));
#1949=CARTESIAN_POINT('',(-1.53,-1.53,-9.05));
#1950=VECTOR('',#2368,1.14);
#1951=CARTESIAN_POINT('',(-1.53,-2.67,-9.05));
#1952=CARTESIAN_POINT('',(-1.53,-2.67,-9.05));
#1953=VECTOR('',#2369,1.14);
#1954=CARTESIAN_POINT('',(-2.67,-2.67,-9.05));
#1955=VECTOR('',#2370,1.14);
#1956=CARTESIAN_POINT('',(3.975,-0.225,0.0));
#1957=VECTOR('',#2371,9.05);
#1958=CARTESIAN_POINT('',(3.975,-3.975,0.0));
#1959=VECTOR('',#2372,9.05);
#1960=CARTESIAN_POINT('',(0.225,-3.975,0.0));
#1961=VECTOR('',#2373,9.05);
#1962=CARTESIAN_POINT('',(0.225,-0.225,0.0));
#1963=VECTOR('',#2374,9.05);
#1964=CARTESIAN_POINT('',(1.225,3.975,0.0));
#1965=VECTOR('',#2375,9.05);
#1966=CARTESIAN_POINT('',(0.225,2.975,0.0));
#1967=VECTOR('',#2376,9.05);
#1968=CARTESIAN_POINT('',(0.225,0.225,0.0));
#1969=VECTOR('',#2377,9.05);
#1970=CARTESIAN_POINT('',(3.975,0.225,0.0));
#1971=VECTOR('',#2378,9.05);
#1972=CARTESIAN_POINT('',(3.975,2.975,0.0));
#1973=VECTOR('',#2379,9.05);
#1974=CARTESIAN_POINT('',(2.975,3.975,0.0));
#1975=VECTOR('',#2380,9.05);
#1976=CARTESIAN_POINT('',(-0.225,-1.225,0.0));
#1977=VECTOR('',#2381,9.05);
#1978=CARTESIAN_POINT('',(-1.225,-0.225,0.0));
#1979=VECTOR('',#2382,9.05);
#1980=CARTESIAN_POINT('',(-2.975,-0.225,0.0));
#1981=VECTOR('',#2383,9.05);
#1982=CARTESIAN_POINT('',(-3.975,-1.225,0.0));
#1983=VECTOR('',#2384,9.05);
#1984=CARTESIAN_POINT('',(-3.975,-3.975,0.0));
#1985=VECTOR('',#2385,9.05);
#1986=CARTESIAN_POINT('',(-0.225,-3.975,0.0));
#1987=VECTOR('',#2386,9.05);
#1988=CARTESIAN_POINT('',(-2.67,1.53,-3.35));
#1989=CARTESIAN_POINT('',(-2.67,1.53,-9.05));
#1990=VECTOR('',#2387,5.7);
#1991=CARTESIAN_POINT('',(-2.67,2.67,-3.35));
#1992=CARTESIAN_POINT('',(-2.67,2.67,-3.35));
#1993=VECTOR('',#2388,1.14);
#1994=CARTESIAN_POINT('',(-2.67,2.67,-9.05));
#1995=VECTOR('',#2389,5.7);
#1996=CARTESIAN_POINT('',(-1.53,2.67,-3.35));
#1997=CARTESIAN_POINT('',(-1.53,2.67,-3.35));
#1998=VECTOR('',#2390,1.14);
#1999=CARTESIAN_POINT('',(-1.53,2.67,-9.05));
#2000=VECTOR('',#2391,5.7);
#2001=CARTESIAN_POINT('',(-1.53,1.53,-3.35));
#2002=CARTESIAN_POINT('',(-1.53,1.53,-3.35));
#2003=VECTOR('',#2392,1.14);
#2004=CARTESIAN_POINT('',(-1.53,1.53,-9.05));
#2005=VECTOR('',#2393,5.7);
#2006=CARTESIAN_POINT('',(-2.67,1.53,-3.35));
#2007=VECTOR('',#2394,1.14);
#2008=CARTESIAN_POINT('',(1.53,2.67,-3.35));
#2009=CARTESIAN_POINT('',(1.53,1.53,-3.35));
#2010=CARTESIAN_POINT('',(1.53,2.67,-3.35));
#2011=VECTOR('',#2395,1.14);
#2012=CARTESIAN_POINT('',(2.67,1.53,-3.35));
#2013=CARTESIAN_POINT('',(1.53,1.53,-3.35));
#2014=VECTOR('',#2396,1.14);
#2015=CARTESIAN_POINT('',(2.67,2.67,-3.35));
#2016=CARTESIAN_POINT('',(2.67,1.53,-3.35));
#2017=VECTOR('',#2397,1.14);
#2018=CARTESIAN_POINT('',(2.67,2.67,-3.35));
#2019=VECTOR('',#2398,1.14);
#2020=CARTESIAN_POINT('',(-1.53,-2.67,-3.35));
#2021=CARTESIAN_POINT('',(-1.53,-1.53,-3.35));
#2022=CARTESIAN_POINT('',(-1.53,-2.67,-3.35));
#2023=VECTOR('',#2399,1.14);
#2024=CARTESIAN_POINT('',(-2.67,-1.53,-3.35));
#2025=CARTESIAN_POINT('',(-1.53,-1.53,-3.35));
#2026=VECTOR('',#2400,1.14);
#2027=CARTESIAN_POINT('',(-2.67,-2.67,-3.35));
#2028=CARTESIAN_POINT('',(-2.67,-1.53,-3.35));
#2029=VECTOR('',#2401,1.14);
#2030=CARTESIAN_POINT('',(-2.67,-2.67,-3.35));
#2031=VECTOR('',#2402,1.14);
#2032=CARTESIAN_POINT('',(2.67,-1.53,-3.35));
#2033=CARTESIAN_POINT('',(1.53,-1.53,-3.35));
#2034=CARTESIAN_POINT('',(2.67,-1.53,-3.35));
#2035=VECTOR('',#2403,1.14);
#2036=CARTESIAN_POINT('',(1.53,-2.67,-3.35));
#2037=CARTESIAN_POINT('',(1.53,-1.53,-3.35));
#2038=VECTOR('',#2404,1.14);
#2039=CARTESIAN_POINT('',(2.67,-2.67,-3.35));
#2040=CARTESIAN_POINT('',(1.53,-2.67,-3.35));
#2041=VECTOR('',#2405,1.14);
#2042=CARTESIAN_POINT('',(2.67,-2.67,-3.35));
#2043=VECTOR('',#2406,1.14);
#2044=CARTESIAN_POINT('',(1.53,2.67,-9.05));
#2045=VECTOR('',#2407,5.7);
#2046=CARTESIAN_POINT('',(2.67,2.67,-9.05));
#2047=VECTOR('',#2408,5.7);
#2048=CARTESIAN_POINT('',(2.67,1.53,-9.05));
#2049=VECTOR('',#2409,5.7);
#2050=CARTESIAN_POINT('',(1.53,1.53,-9.05));
#2051=VECTOR('',#2410,5.7);
#2052=CARTESIAN_POINT('',(-1.53,-2.67,-9.05));
#2053=VECTOR('',#2411,5.7);
#2054=CARTESIAN_POINT('',(-2.67,-2.67,-9.05));
#2055=VECTOR('',#2412,5.7);
#2056=CARTESIAN_POINT('',(-2.67,-1.53,-9.05));
#2057=VECTOR('',#2413,5.7);
#2058=CARTESIAN_POINT('',(-1.53,-1.53,-9.05));
#2059=VECTOR('',#2414,5.7);
#2060=CARTESIAN_POINT('',(2.67,-1.53,-9.05));
#2061=VECTOR('',#2415,5.7);
#2062=CARTESIAN_POINT('',(2.67,-2.67,-9.05));
#2063=VECTOR('',#2416,5.7);
#2064=CARTESIAN_POINT('',(1.53,-2.67,-9.05));
#2065=VECTOR('',#2417,5.7);
#2066=CARTESIAN_POINT('',(1.53,-1.53,-9.05));
#2067=VECTOR('',#2418,5.7);
#2068=CARTESIAN_POINT('',(4.25,4.8,-12.8));
#2069=CARTESIAN_POINT('',(4.25,4.8,0.0));
#2070=VECTOR('',#2419,12.8);
#2071=CARTESIAN_POINT('',(4.75,4.3,-12.8));
#2072=CARTESIAN_POINT('',(4.75,4.3,0.0));
#2073=VECTOR('',#2420,12.8);
#2074=AXIS2_PLACEMENT_3D('',#2421,#2422,#2423);
#2075=CARTESIAN_POINT('',(4.75,-4.3,-12.8));
#2076=CARTESIAN_POINT('',(4.75,-4.3,-12.8));
#2077=VECTOR('',#2424,8.6);
#2078=CARTESIAN_POINT('',(4.25,-4.8,-12.8));
#2079=AXIS2_PLACEMENT_3D('',#2425,#2426,#2427);
#2080=CARTESIAN_POINT('',(-4.25,-4.8,-12.8));
#2081=CARTESIAN_POINT('',(-4.25,-4.8,-12.8));
#2082=VECTOR('',#2428,8.5);
#2083=CARTESIAN_POINT('',(-4.75,-4.3,-12.8));
#2084=AXIS2_PLACEMENT_3D('',#2429,#2430,#2431);
#2085=CARTESIAN_POINT('',(-4.75,2.1,-12.8));
#2086=CARTESIAN_POINT('',(-4.75,2.1,-12.8));
#2087=VECTOR('',#2432,6.4);
#2088=AXIS2_PLACEMENT_3D('',#2433,#2434,#2435);
#2089=CARTESIAN_POINT('',(-4.75,4.3,-12.8));
#2090=CARTESIAN_POINT('',(-4.75,4.3,-12.8));
#2091=VECTOR('',#2436,1.246060798583);
#2092=CARTESIAN_POINT('',(-4.25,4.8,-12.8));
#2093=AXIS2_PLACEMENT_3D('',#2437,#2438,#2439);
#2094=CARTESIAN_POINT('',(4.25,4.8,-12.8));
#2095=VECTOR('',#2440,8.5);
#2096=CARTESIAN_POINT('',(-4.625,-4.3,-12.8));
#2097=CARTESIAN_POINT('',(-4.125,-4.3,-12.8));
#2098=AXIS2_PLACEMENT_3D('',#2441,#2442,#2443);
#2099=AXIS2_PLACEMENT_3D('',#2444,#2445,#2446);
#2100=CARTESIAN_POINT('',(1.53,3.025,-12.8));
#2101=CARTESIAN_POINT('',(2.67,3.025,-12.8));
#2102=CARTESIAN_POINT('',(1.53,3.025,-12.8));
#2103=VECTOR('',#2447,1.14);
#2104=CARTESIAN_POINT('',(1.53,2.475,-12.8));
#2105=CARTESIAN_POINT('',(1.53,2.475,-12.8));
#2106=VECTOR('',#2448,0.55);
#2107=CARTESIAN_POINT('',(2.67,2.475,-12.8));
#2108=CARTESIAN_POINT('',(2.67,2.475,-12.8));
#2109=VECTOR('',#2449,1.14);
#2110=CARTESIAN_POINT('',(2.67,3.025,-12.8));
#2111=VECTOR('',#2450,0.55);
#2112=CARTESIAN_POINT('',(2.67,-2.475,-12.8));
#2113=CARTESIAN_POINT('',(2.67,-3.025,-12.8));
#2114=CARTESIAN_POINT('',(2.67,-2.475,-12.8));
#2115=VECTOR('',#2451,0.55);
#2116=CARTESIAN_POINT('',(1.53,-2.475,-12.8));
#2117=CARTESIAN_POINT('',(1.53,-2.475,-12.8));
#2118=VECTOR('',#2452,1.14);
#2119=CARTESIAN_POINT('',(1.53,-3.025,-12.8));
#2120=CARTESIAN_POINT('',(1.53,-3.025,-12.8));
#2121=VECTOR('',#2453,0.55);
#2122=CARTESIAN_POINT('',(2.67,-3.025,-12.8));
#2123=VECTOR('',#2454,1.14);
#2124=CARTESIAN_POINT('',(-2.67,2.475,-12.8));
#2125=CARTESIAN_POINT('',(-2.67,3.025,-12.8));
#2126=CARTESIAN_POINT('',(-2.67,2.475,-12.8));
#2127=VECTOR('',#2455,0.55);
#2128=CARTESIAN_POINT('',(-1.53,2.475,-12.8));
#2129=CARTESIAN_POINT('',(-1.53,2.475,-12.8));
#2130=VECTOR('',#2456,1.14);
#2131=CARTESIAN_POINT('',(-1.53,3.025,-12.8));
#2132=CARTESIAN_POINT('',(-1.53,3.025,-12.8));
#2133=VECTOR('',#2457,0.55);
#2134=CARTESIAN_POINT('',(-2.67,3.025,-12.8));
#2135=VECTOR('',#2458,1.14);
#2136=CARTESIAN_POINT('',(-1.53,-3.025,-12.8));
#2137=CARTESIAN_POINT('',(-2.67,-3.025,-12.8));
#2138=CARTESIAN_POINT('',(-1.53,-3.025,-12.8));
#2139=VECTOR('',#2459,1.14);
#2140=CARTESIAN_POINT('',(-1.53,-2.475,-12.8));
#2141=CARTESIAN_POINT('',(-1.53,-2.475,-12.8));
#2142=VECTOR('',#2460,0.55);
#2143=CARTESIAN_POINT('',(-2.67,-2.475,-12.8));
#2144=CARTESIAN_POINT('',(-2.67,-2.475,-12.8));
#2145=VECTOR('',#2461,1.14);
#2146=CARTESIAN_POINT('',(-2.67,-3.025,-12.8));
#2147=VECTOR('',#2462,0.55);
#2148=CARTESIAN_POINT('',(-4.125,-4.3,-13.8));
#2149=CARTESIAN_POINT('',(-4.125,-4.3,-12.8));
#2150=VECTOR('',#2463,1.0);
#2151=CARTESIAN_POINT('',(-4.625,-4.3,-13.8));
#2152=CARTESIAN_POINT('',(-4.625,-4.3,-12.8));
#2153=VECTOR('',#2464,1.0);
#2154=AXIS2_PLACEMENT_3D('',#2465,#2466,#2467);
#2155=CARTESIAN_POINT('',(-4.375,-4.3,-14.05));
#2156=AXIS2_PLACEMENT_3D('',#2468,#2469,#2470);
#2157=AXIS2_PLACEMENT_3D('',#2471,#2472,#2473);
#2158=AXIS2_PLACEMENT_3D('',#2474,#2475,#2476);
#2159=CARTESIAN_POINT('',(-4.25,4.8,0.0));
#2160=VECTOR('',#2477,12.8);
#2161=CARTESIAN_POINT('',(-4.75,4.3,0.0));
#2162=VECTOR('',#2478,12.8);
#2163=CARTESIAN_POINT('',(-4.75,2.1,-12.8));
#2164=VECTOR('',#2479,12.8);
#2165=CARTESIAN_POINT('',(-4.75,-4.3,0.0));
#2166=VECTOR('',#2480,12.8);
#2167=CARTESIAN_POINT('',(-4.25,-4.8,0.0));
#2168=VECTOR('',#2481,12.8);
#2169=CARTESIAN_POINT('',(1.7,-4.8,-3.2));
#2170=CARTESIAN_POINT('',(1.7,-4.8,0.0));
#2171=VECTOR('',#2482,3.2);
#2172=CARTESIAN_POINT('',(-1.7,-4.8,-3.2));
#2173=CARTESIAN_POINT('',(-1.7,-4.8,-3.2));
#2174=VECTOR('',#2483,3.4);
#2175=CARTESIAN_POINT('',(-1.7,-4.8,0.0));
#2176=VECTOR('',#2484,3.2);
#2177=CARTESIAN_POINT('',(4.25,-4.8,0.0));
#2178=VECTOR('',#2485,12.8);
#2179=CARTESIAN_POINT('',(4.75,-4.3,0.0));
#2180=VECTOR('',#2486,12.8);
#2181=CARTESIAN_POINT('',(-1.7,-6.1,-3.2));
#2182=CARTESIAN_POINT('',(-1.7,-6.1,-3.2));
#2183=VECTOR('',#2487,1.3);
#2184=CARTESIAN_POINT('',(-1.7,-6.1,-2.25166604984));
#2185=CARTESIAN_POINT('',(-1.7,-6.1,-2.25166604984));
#2186=VECTOR('',#2488,0.9483339501605);
#2187=CARTESIAN_POINT('',(-1.7,-4.8,0.0));
#2188=VECTOR('',#2489,2.6);
#2189=CARTESIAN_POINT('',(1.7,-6.1,-2.25166604984));
#2190=CARTESIAN_POINT('',(-1.7,-6.1,-2.25166604984));
#2191=VECTOR('',#2490,3.4);
#2192=CARTESIAN_POINT('',(1.7,-4.8,0.0));
#2193=VECTOR('',#2491,2.6);
#2194=CARTESIAN_POINT('',(1.7,-6.1,-3.2));
#2195=CARTESIAN_POINT('',(1.7,-6.1,-2.25166604984));
#2196=VECTOR('',#2492,0.9483339501605);
#2197=CARTESIAN_POINT('',(1.7,-6.1,-3.2));
#2198=VECTOR('',#2493,1.3);
#2199=CARTESIAN_POINT('',(-1.7,-6.1,-3.2));
#2200=VECTOR('',#2494,3.4);
#2201=CARTESIAN_POINT('',(2.67,2.475,-16.0));
#2202=CARTESIAN_POINT('',(2.67,2.475,-12.8));
#2203=VECTOR('',#2495,3.2);
#2204=CARTESIAN_POINT('',(2.67,3.025,-16.0));
#2205=CARTESIAN_POINT('',(2.67,3.025,-16.0));
#2206=VECTOR('',#2496,0.55);
#2207=CARTESIAN_POINT('',(2.67,3.025,-12.8));
#2208=VECTOR('',#2497,3.2);
#2209=CARTESIAN_POINT('',(1.53,3.025,-16.0));
#2210=CARTESIAN_POINT('',(1.53,3.025,-16.0));
#2211=VECTOR('',#2498,1.14);
#2212=CARTESIAN_POINT('',(1.53,3.025,-12.8));
#2213=VECTOR('',#2499,3.2);
#2214=CARTESIAN_POINT('',(1.53,2.475,-16.0));
#2215=CARTESIAN_POINT('',(1.53,2.475,-16.0));
#2216=VECTOR('',#2500,0.55);
#2217=CARTESIAN_POINT('',(1.53,2.475,-12.8));
#2218=VECTOR('',#2501,3.2);
#2219=CARTESIAN_POINT('',(2.67,2.475,-16.0));
#2220=VECTOR('',#2502,1.14);
#2221=CARTESIAN_POINT('',(1.53,-3.025,-16.0));
#2222=CARTESIAN_POINT('',(1.53,-2.475,-16.0));
#2223=CARTESIAN_POINT('',(1.53,-3.025,-16.0));
#2224=VECTOR('',#2503,0.55);
#2225=CARTESIAN_POINT('',(2.67,-2.475,-16.0));
#2226=CARTESIAN_POINT('',(1.53,-2.475,-16.0));
#2227=VECTOR('',#2504,1.14);
#2228=CARTESIAN_POINT('',(2.67,-3.025,-16.0));
#2229=CARTESIAN_POINT('',(2.67,-2.475,-16.0));
#2230=VECTOR('',#2505,0.55);
#2231=CARTESIAN_POINT('',(2.67,-3.025,-16.0));
#2232=VECTOR('',#2506,1.14);
#2233=CARTESIAN_POINT('',(-1.53,3.025,-16.0));
#2234=CARTESIAN_POINT('',(-1.53,2.475,-16.0));
#2235=CARTESIAN_POINT('',(-1.53,3.025,-16.0));
#2236=VECTOR('',#2507,0.55);
#2237=CARTESIAN_POINT('',(-2.67,2.475,-16.0));
#2238=CARTESIAN_POINT('',(-1.53,2.475,-16.0));
#2239=VECTOR('',#2508,1.14);
#2240=CARTESIAN_POINT('',(-2.67,3.025,-16.0));
#2241=CARTESIAN_POINT('',(-2.67,2.475,-16.0));
#2242=VECTOR('',#2509,0.55);
#2243=CARTESIAN_POINT('',(-2.67,3.025,-16.0));
#2244=VECTOR('',#2510,1.14);
#2245=CARTESIAN_POINT('',(-2.67,-2.475,-16.0));
#2246=CARTESIAN_POINT('',(-1.53,-2.475,-16.0));
#2247=CARTESIAN_POINT('',(-2.67,-2.475,-16.0));
#2248=VECTOR('',#2511,1.14);
#2249=CARTESIAN_POINT('',(-1.53,-3.025,-16.0));
#2250=CARTESIAN_POINT('',(-1.53,-2.475,-16.0));
#2251=VECTOR('',#2512,0.55);
#2252=CARTESIAN_POINT('',(-2.67,-3.025,-16.0));
#2253=CARTESIAN_POINT('',(-1.53,-3.025,-16.0));
#2254=VECTOR('',#2513,1.14);
#2255=CARTESIAN_POINT('',(-2.67,-3.025,-16.0));
#2256=VECTOR('',#2514,0.55);
#2257=CARTESIAN_POINT('',(1.53,-3.025,-12.8));
#2258=VECTOR('',#2515,3.2);
#2259=CARTESIAN_POINT('',(2.67,-3.025,-12.8));
#2260=VECTOR('',#2516,3.2);
#2261=CARTESIAN_POINT('',(2.67,-2.475,-12.8));
#2262=VECTOR('',#2517,3.2);
#2263=CARTESIAN_POINT('',(1.53,-2.475,-12.8));
#2264=VECTOR('',#2518,3.2);
#2265=CARTESIAN_POINT('',(-1.53,3.025,-12.8));
#2266=VECTOR('',#2519,3.2);
#2267=CARTESIAN_POINT('',(-2.67,3.025,-12.8));
#2268=VECTOR('',#2520,3.2);
#2269=CARTESIAN_POINT('',(-2.67,2.475,-12.8));
#2270=VECTOR('',#2521,3.2);
#2271=CARTESIAN_POINT('',(-1.53,2.475,-12.8));
#2272=VECTOR('',#2522,3.2);
#2273=CARTESIAN_POINT('',(-2.67,-2.475,-12.8));
#2274=VECTOR('',#2523,3.2);
#2275=CARTESIAN_POINT('',(-2.67,-3.025,-12.8));
#2276=VECTOR('',#2524,3.2);
#2277=CARTESIAN_POINT('',(-1.53,-3.025,-12.8));
#2278=VECTOR('',#2525,3.2);
#2279=CARTESIAN_POINT('',(-1.53,-2.475,-12.8));
#2280=VECTOR('',#2526,3.2);
#2281=DIRECTION('',(0.0,0.0,-1.0));
#2282=CARTESIAN_POINT('',(-4.6,2.576969600708,0.0));
#2283=DIRECTION('',(0.0,0.0,1.0));
#2284=DIRECTION('',(-0.300000000000013,0.953939201416942,0.0));
#2285=DIRECTION('',(0.0,0.0,1.0));
#2286=CARTESIAN_POINT('',(-4.6,2.576969600708,-12.8));
#2287=DIRECTION('',(0.0,0.0,1.0));
#2288=DIRECTION('',(-0.300000000000013,0.953939201416942,0.0));
#2289=DIRECTION('',(-1.0,0.0,0.0));
#2290=CARTESIAN_POINT('',(-4.25,4.3,0.0));
#2291=DIRECTION('',(0.0,-0.0,1.0));
#2292=DIRECTION('',(0.0,1.0,0.0));
#2293=DIRECTION('',(0.0,-1.0,0.0));
#2294=CARTESIAN_POINT('',(-4.6,2.576969600708,0.0));
#2295=DIRECTION('',(0.0,0.0,1.0));
#2296=DIRECTION('',(-0.300000000000013,0.953939201416942,0.0));
#2297=DIRECTION('',(0.0,-1.0,0.0));
#2298=CARTESIAN_POINT('',(-4.25,-4.3,0.0));
#2299=DIRECTION('',(0.0,0.0,1.0));
#2300=DIRECTION('',(-1.0,0.0,0.0));
#2301=DIRECTION('',(1.0,0.0,0.0));
#2302=DIRECTION('',(1.0,0.0,0.0));
#2303=DIRECTION('',(1.0,0.0,0.0));
#2304=CARTESIAN_POINT('',(4.25,-4.3,0.0));
#2305=DIRECTION('',(0.0,0.0,1.0));
#2306=DIRECTION('',(0.0,-1.0,0.0));
#2307=DIRECTION('',(0.0,1.0,0.0));
#2308=CARTESIAN_POINT('',(4.25,4.3,0.0));
#2309=DIRECTION('',(0.0,0.0,1.0));
#2310=DIRECTION('',(1.0,0.0,0.0));
#2311=DIRECTION('',(1.0,0.0,0.0));
#2312=DIRECTION('',(0.0,-1.0,0.0));
#2313=DIRECTION('',(-1.0,0.0,0.0));
#2314=DIRECTION('',(0.0,1.0,0.0));
#2315=DIRECTION('',(1.0,0.0,0.0));
#2316=DIRECTION('',(0.0,-1.0,0.0));
#2317=DIRECTION('',(0.707106781186548,0.707106781186548,0.0));
#2318=DIRECTION('',(-1.0,0.0,0.0));
#2319=DIRECTION('',(0.707106781186548,-0.707106781186548,0.0));
#2320=DIRECTION('',(0.0,1.0,0.0));
#2321=DIRECTION('',(1.0,0.0,0.0));
#2322=DIRECTION('',(0.0,-1.0,0.0));
#2323=DIRECTION('',(0.707106781186548,0.707106781186548,0.0));
#2324=DIRECTION('',(-1.0,0.0,0.0));
#2325=DIRECTION('',(0.707106781186548,-0.707106781186548,0.0));
#2326=DIRECTION('',(0.0,1.0,0.0));
#2327=DIRECTION('',(-1.0,0.0,0.0));
#2328=DIRECTION('',(0.0,1.0,0.0));
#2329=DIRECTION('',(1.0,0.0,0.0));
#2330=DIRECTION('',(0.0,-1.0,0.0));
#2331=DIRECTION('',(0.0,0.0,-1.0));
#2332=DIRECTION('',(0.0,-1.0,0.0));
#2333=DIRECTION('',(0.0,0.0,-1.0));
#2334=DIRECTION('',(-1.0,0.0,0.0));
#2335=DIRECTION('',(0.0,0.0,-1.0));
#2336=DIRECTION('',(0.0,1.0,0.0));
#2337=DIRECTION('',(0.0,0.0,-1.0));
#2338=DIRECTION('',(1.0,0.0,0.0));
#2339=DIRECTION('',(-1.0,0.0,0.0));
#2340=DIRECTION('',(0.0,1.0,0.0));
#2341=DIRECTION('',(1.0,0.0,0.0));
#2342=DIRECTION('',(0.0,-1.0,0.0));
#2343=DIRECTION('',(-1.0,0.0,0.0));
#2344=DIRECTION('',(0.0,-1.0,0.0));
#2345=DIRECTION('',(1.0,0.0,0.0));
#2346=DIRECTION('',(0.0,1.0,0.0));
#2347=DIRECTION('',(1.0,0.0,0.0));
#2348=DIRECTION('',(0.0,-1.0,0.0));
#2349=DIRECTION('',(-1.0,0.0,0.0));
#2350=DIRECTION('',(0.0,1.0,0.0));
#2351=DIRECTION('',(0.0,-1.0,0.0));
#2352=DIRECTION('',(1.0,0.0,0.0));
#2353=DIRECTION('',(0.0,1.0,0.0));
#2354=DIRECTION('',(-0.707106781186548,0.707106781186548,0.0));
#2355=DIRECTION('',(-1.0,0.0,0.0));
#2356=DIRECTION('',(-0.707106781186548,-0.707106781186548,0.0));
#2357=DIRECTION('',(0.0,1.0,0.0));
#2358=DIRECTION('',(1.0,0.0,0.0));
#2359=DIRECTION('',(0.0,-1.0,0.0));
#2360=DIRECTION('',(-1.0,0.0,0.0));
#2361=DIRECTION('',(-1.0,0.0,0.0));
#2362=DIRECTION('',(-0.707106781186548,-0.707106781186548,0.0));
#2363=DIRECTION('',(0.0,-1.0,0.0));
#2364=DIRECTION('',(1.0,0.0,0.0));
#2365=DIRECTION('',(0.0,1.0,0.0));
#2366=DIRECTION('',(-0.707106781186548,0.707106781186548,0.0));
#2367=DIRECTION('',(0.0,-1.0,0.0));
#2368=DIRECTION('',(-1.0,0.0,0.0));
#2369=DIRECTION('',(0.0,1.0,0.0));
#2370=DIRECTION('',(1.0,0.0,0.0));
#2371=DIRECTION('',(0.0,0.0,-1.0));
#2372=DIRECTION('',(0.0,0.0,-1.0));
#2373=DIRECTION('',(0.0,0.0,-1.0));
#2374=DIRECTION('',(0.0,0.0,-1.0));
#2375=DIRECTION('',(0.0,0.0,-1.0));
#2376=DIRECTION('',(0.0,0.0,-1.0));
#2377=DIRECTION('',(0.0,0.0,-1.0));
#2378=DIRECTION('',(0.0,0.0,-1.0));
#2379=DIRECTION('',(0.0,0.0,-1.0));
#2380=DIRECTION('',(0.0,0.0,-1.0));
#2381=DIRECTION('',(0.0,0.0,-1.0));
#2382=DIRECTION('',(0.0,0.0,-1.0));
#2383=DIRECTION('',(0.0,0.0,-1.0));
#2384=DIRECTION('',(0.0,0.0,-1.0));
#2385=DIRECTION('',(0.0,0.0,-1.0));
#2386=DIRECTION('',(0.0,0.0,-1.0));
#2387=DIRECTION('',(0.0,0.0,1.0));
#2388=DIRECTION('',(0.0,-1.0,0.0));
#2389=DIRECTION('',(0.0,0.0,1.0));
#2390=DIRECTION('',(-1.0,0.0,0.0));
#2391=DIRECTION('',(0.0,0.0,1.0));
#2392=DIRECTION('',(0.0,1.0,0.0));
#2393=DIRECTION('',(0.0,0.0,1.0));
#2394=DIRECTION('',(1.0,0.0,0.0));
#2395=DIRECTION('',(0.0,-1.0,0.0));
#2396=DIRECTION('',(1.0,0.0,0.0));
#2397=DIRECTION('',(0.0,1.0,0.0));
#2398=DIRECTION('',(-1.0,0.0,0.0));
#2399=DIRECTION('',(0.0,1.0,0.0));
#2400=DIRECTION('',(-1.0,0.0,0.0));
#2401=DIRECTION('',(0.0,-1.0,0.0));
#2402=DIRECTION('',(1.0,0.0,0.0));
#2403=DIRECTION('',(-1.0,0.0,0.0));
#2404=DIRECTION('',(0.0,-1.0,0.0));
#2405=DIRECTION('',(1.0,0.0,0.0));
#2406=DIRECTION('',(0.0,1.0,0.0));
#2407=DIRECTION('',(0.0,0.0,1.0));
#2408=DIRECTION('',(0.0,0.0,1.0));
#2409=DIRECTION('',(0.0,0.0,1.0));
#2410=DIRECTION('',(0.0,0.0,1.0));
#2411=DIRECTION('',(0.0,0.0,1.0));
#2412=DIRECTION('',(0.0,0.0,1.0));
#2413=DIRECTION('',(0.0,0.0,1.0));
#2414=DIRECTION('',(0.0,0.0,1.0));
#2415=DIRECTION('',(0.0,0.0,1.0));
#2416=DIRECTION('',(0.0,0.0,1.0));
#2417=DIRECTION('',(0.0,0.0,1.0));
#2418=DIRECTION('',(0.0,0.0,1.0));
#2419=DIRECTION('',(0.0,0.0,-1.0));
#2420=DIRECTION('',(0.0,0.0,-1.0));
#2421=CARTESIAN_POINT('',(4.25,4.3,-12.8));
#2422=DIRECTION('',(0.0,0.0,-1.0));
#2423=DIRECTION('',(0.0,1.0,0.0));
#2424=DIRECTION('',(0.0,1.0,0.0));
#2425=CARTESIAN_POINT('',(4.25,-4.3,-12.8));
#2426=DIRECTION('',(0.0,0.0,-1.0));
#2427=DIRECTION('',(1.0,0.0,0.0));
#2428=DIRECTION('',(1.0,0.0,0.0));
#2429=CARTESIAN_POINT('',(-4.25,-4.3,-12.8));
#2430=DIRECTION('',(0.0,0.0,-1.0));
#2431=DIRECTION('',(0.0,-1.0,0.0));
#2432=DIRECTION('',(0.0,-1.0,0.0));
#2433=CARTESIAN_POINT('',(-4.6,2.576969600708,-12.8));
#2434=DIRECTION('',(0.0,0.0,1.0));
#2435=DIRECTION('',(-0.300000000000013,0.953939201416942,0.0));
#2436=DIRECTION('',(0.0,-1.0,0.0));
#2437=CARTESIAN_POINT('',(-4.25,4.3,-12.8));
#2438=DIRECTION('',(0.0,0.0,-1.0));
#2439=DIRECTION('',(-1.0,0.0,0.0));
#2440=DIRECTION('',(-1.0,0.0,0.0));
#2441=CARTESIAN_POINT('',(-4.375,-4.3,-12.8));
#2442=DIRECTION('',(0.0,0.0,-1.0));
#2443=DIRECTION('',(-1.0,0.0,0.0));
#2444=CARTESIAN_POINT('',(-4.375,-4.3,-12.8));
#2445=DIRECTION('',(0.0,0.0,-1.0));
#2446=DIRECTION('',(1.0,0.0,0.0));
#2447=DIRECTION('',(1.0,0.0,0.0));
#2448=DIRECTION('',(0.0,1.0,0.0));
#2449=DIRECTION('',(-1.0,0.0,0.0));
#2450=DIRECTION('',(0.0,-1.0,0.0));
#2451=DIRECTION('',(0.0,-1.0,0.0));
#2452=DIRECTION('',(1.0,0.0,0.0));
#2453=DIRECTION('',(0.0,1.0,0.0));
#2454=DIRECTION('',(-1.0,0.0,0.0));
#2455=DIRECTION('',(0.0,1.0,0.0));
#2456=DIRECTION('',(-1.0,0.0,0.0));
#2457=DIRECTION('',(0.0,-1.0,0.0));
#2458=DIRECTION('',(1.0,0.0,0.0));
#2459=DIRECTION('',(-1.0,0.0,0.0));
#2460=DIRECTION('',(0.0,-1.0,0.0));
#2461=DIRECTION('',(1.0,0.0,0.0));
#2462=DIRECTION('',(0.0,1.0,0.0));
#2463=DIRECTION('',(0.0,7.673861546209E-13,-1.0));
#2464=DIRECTION('',(0.0,-7.682743330406E-13,-1.0));
#2465=CARTESIAN_POINT('',(-4.375,-4.3,-13.8));
#2466=DIRECTION('',(0.0,0.0,-1.0));
#2467=DIRECTION('',(1.0,0.0,0.0));
#2468=CARTESIAN_POINT('',(-4.375,-4.3,-13.8));
#2469=DIRECTION('',(-8.366001014572E-10,1.0,0.0));
#2470=DIRECTION('',(0.0,0.0,-1.0));
#2471=CARTESIAN_POINT('',(-4.375,-4.3,-13.8));
#2472=DIRECTION('',(8.365840916941E-10,-1.0,0.0));
#2473=DIRECTION('',(0.0,0.0,-1.0));
#2474=CARTESIAN_POINT('',(-4.375,-4.3,-13.8));
#2475=DIRECTION('',(0.0,0.0,-1.0));
#2476=DIRECTION('',(-1.0,0.0,0.0));
#2477=DIRECTION('',(0.0,0.0,-1.0));
#2478=DIRECTION('',(0.0,0.0,-1.0));
#2479=DIRECTION('',(0.0,0.0,1.0));
#2480=DIRECTION('',(0.0,0.0,-1.0));
#2481=DIRECTION('',(0.0,0.0,-1.0));
#2482=DIRECTION('',(0.0,0.0,-1.0));
#2483=DIRECTION('',(1.0,0.0,0.0));
#2484=DIRECTION('',(0.0,0.0,-1.0));
#2485=DIRECTION('',(0.0,0.0,-1.0));
#2486=DIRECTION('',(0.0,0.0,-1.0));
#2487=DIRECTION('',(0.0,1.0,0.0));
#2488=DIRECTION('',(0.0,0.0,-1.0));
#2489=DIRECTION('',(0.0,-0.500000000000017,-0.866025403784429));
#2490=DIRECTION('',(1.0,0.0,0.0));
#2491=DIRECTION('',(0.0,-0.500000000000017,-0.866025403784429));
#2492=DIRECTION('',(0.0,0.0,-1.0));
#2493=DIRECTION('',(0.0,1.0,0.0));
#2494=DIRECTION('',(1.0,0.0,0.0));
#2495=DIRECTION('',(0.0,0.0,-1.0));
#2496=DIRECTION('',(0.0,-1.0,0.0));
#2497=DIRECTION('',(0.0,0.0,-1.0));
#2498=DIRECTION('',(1.0,0.0,0.0));
#2499=DIRECTION('',(0.0,0.0,-1.0));
#2500=DIRECTION('',(0.0,1.0,0.0));
#2501=DIRECTION('',(0.0,0.0,-1.0));
#2502=DIRECTION('',(-1.0,0.0,0.0));
#2503=DIRECTION('',(0.0,1.0,0.0));
#2504=DIRECTION('',(1.0,0.0,0.0));
#2505=DIRECTION('',(0.0,-1.0,0.0));
#2506=DIRECTION('',(-1.0,0.0,0.0));
#2507=DIRECTION('',(0.0,-1.0,0.0));
#2508=DIRECTION('',(-1.0,0.0,0.0));
#2509=DIRECTION('',(0.0,1.0,0.0));
#2510=DIRECTION('',(1.0,0.0,0.0));
#2511=DIRECTION('',(1.0,0.0,0.0));
#2512=DIRECTION('',(0.0,-1.0,0.0));
#2513=DIRECTION('',(-1.0,0.0,0.0));
#2514=DIRECTION('',(0.0,1.0,0.0));
#2515=DIRECTION('',(0.0,0.0,-1.0));
#2516=DIRECTION('',(0.0,0.0,-1.0));
#2517=DIRECTION('',(0.0,0.0,-1.0));
#2518=DIRECTION('',(0.0,0.0,-1.0));
#2519=DIRECTION('',(0.0,0.0,-1.0));
#2520=DIRECTION('',(0.0,0.0,-1.0));
#2521=DIRECTION('',(0.0,0.0,-1.0));
#2522=DIRECTION('',(0.0,0.0,-1.0));
#2523=DIRECTION('',(0.0,0.0,-1.0));
#2524=DIRECTION('',(0.0,0.0,-1.0));
#2525=DIRECTION('',(0.0,0.0,-1.0));
#2526=DIRECTION('',(0.0,0.0,-1.0));
ENDSEC;
END-ISO-10303-21;
